<svg xmlns="http://www.w3.org/2000/svg" xmlns:xlink="http://www.w3.org/1999/xlink" width="500" zoomAndPan="magnify" viewBox="0 0 375 374.999991" height="500" preserveAspectRatio="xMidYMid meet" version="1.2"><defs><clipPath id="1586f03ea0"><path d="M 2.980469 2.980469 L 372.019531 2.980469 L 372.019531 372.019531 L 2.980469 372.019531 Z M 2.980469 2.980469 "/></clipPath><clipPath id="9091b671be"><path d="M 187.5 2.980469 C 85.59375 2.980469 2.980469 85.59375 2.980469 187.5 C 2.980469 289.40625 85.59375 372.019531 187.5 372.019531 C 289.40625 372.019531 372.019531 289.40625 372.019531 187.5 C 372.019531 85.59375 289.40625 2.980469 187.5 2.980469 Z M 187.5 2.980469 "/></clipPath><clipPath id="6ea8d16c00"><path d="M 74 66.121094 L 316.457031 66.121094 L 316.457031 337 L 74 337 Z M 74 66.121094 "/></clipPath></defs><g id="f144cf6846"><g clip-rule="nonzero" clip-path="url(#1586f03ea0)"><g clip-rule="nonzero" clip-path="url(#9091b671be)"><path style=" stroke:none;fill-rule:nonzero;fill:#6272a4;fill-opacity:1;" d="M 2.980469 2.980469 L 372.019531 2.980469 L 372.019531 372.019531 L 2.980469 372.019531 Z M 2.980469 2.980469 "/></g></g><g clip-rule="nonzero" clip-path="url(#6ea8d16c00)"><path style=" stroke:none;fill-rule:nonzero;fill:#ffffff;fill-opacity:1;" d="M 74.691406 323.726562 C 74.816406 324.628906 74.726562 324.179688 75.109375 325.75 C 75.375 326.253906 75.277344 326.046875 75.539062 326.640625 C 75.484375 326.746094 75.507812 326.613281 75.449219 327.425781 C 75.632812 328.324219 75.507812 327.933594 76.027344 329.167969 C 76.4375 330.121094 76.257812 329.863281 77.191406 331.175781 C 77.726562 331.621094 77.507812 331.457031 78.148438 331.890625 C 79.199219 332.203125 78.738281 332.039062 80.207031 332.632812 C 80.777344 333.746094 80.59375 333.46875 81.019531 333.90625 C 81.863281 334.519531 81.605469 334.363281 82.171875 334.628906 C 82.90625 334.859375 82.660156 334.714844 83.226562 335.308594 C 83.539062 335.542969 83.324219 335.402344 84.179688 335.914062 C 85.113281 336.277344 84.234375 336.105469 87.925781 336.394531 C 110.144531 336.710938 151.714844 336.824219 151.71875 336.824219 C 159.113281 336.675781 157.058594 336.902344 161.488281 336.289062 C 165.300781 336.074219 164.910156 336.082031 165.734375 335.765625 C 166.988281 334.824219 165.15625 336.023438 171.078125 333.265625 C 173.285156 332.507812 172.847656 332.691406 173.363281 332.378906 C 175.015625 331.800781 174.480469 331.980469 175.75 331.578125 C 179.816406 330.773438 177.859375 330.839844 179.484375 330.792969 C 184.523438 329.25 179.675781 330.382812 186.699219 328.792969 C 190.191406 327.445312 188.90625 327.746094 195.980469 326.230469 C 198.777344 325.90625 197.957031 326.050781 200.824219 325.410156 C 202.863281 324.953125 202.550781 325.316406 205.511719 324.710938 C 209.832031 324.042969 211.214844 323.59375 211.441406 323.554688 C 216.460938 322.300781 223.636719 319.875 228.726562 317.753906 C 231.359375 316.890625 231.480469 316.78125 232.859375 316.742188 C 235.054688 315.09375 233.605469 315.886719 235.402344 314.859375 C 246.015625 309.707031 246.191406 309.203125 251.417969 305.695312 C 259.285156 300.585938 257.773438 301.980469 262.597656 297.75 C 263.71875 296.226562 262.3125 298.113281 265.171875 295.117188 C 269.109375 291.308594 268.539062 290.972656 271.792969 286.703125 C 274.007812 283.242188 273.601562 283.660156 273.929688 283.570312 C 274.992188 282.976562 274.773438 283.101562 275.347656 282.511719 C 275.902344 281.628906 275.808594 281.792969 275.875 281.621094 L 276.148438 281.355469 C 276.859375 281.605469 276.292969 281.421875 277.078125 281.542969 C 277.425781 283.066406 277.21875 282.03125 277.507812 282.953125 C 277.832031 283.394531 277.691406 283.289062 278.117188 283.449219 C 278.390625 284.246094 278.492188 284.394531 278.644531 286.683594 C 280.460938 292.636719 280.207031 290.183594 281.550781 296.164062 C 282.113281 298.167969 281.882812 297.4375 282.5625 299.34375 C 284.335938 305.949219 284.296875 306.222656 284.464844 309.507812 C 284.214844 311.179688 284.320312 310.457031 284.003906 312.71875 C 283.410156 314.335938 283.644531 313.816406 282.984375 315.046875 C 282.050781 316.988281 282.425781 316.277344 281.359375 318.15625 C 281.6875 317.9375 281.890625 317.613281 280.132812 319.890625 C 278.289062 322.496094 277.949219 322.332031 276.691406 324.355469 C 275.835938 325.351562 276.046875 325.15625 275.6875 325.375 C 274.449219 325.832031 274.871094 325.765625 273.816406 325.710938 C 271.929688 325.65625 272.484375 325.589844 271.328125 325.957031 C 270.191406 326.644531 270.765625 326.207031 268.726562 327.984375 C 267.90625 328.828125 268.058594 328.664062 267.90625 328.839844 C 266.378906 331.132812 266.019531 332.292969 265.785156 332.878906 C 265.746094 333.839844 265.664062 333.488281 266.367188 335.464844 C 267.757812 337.164062 268.460938 336.746094 287.429688 336.808594 C 290.140625 336.789062 290.546875 336.878906 293.417969 336.359375 C 294.488281 336.246094 294.101562 336.316406 295.105469 336.042969 C 296.722656 335.261719 296.996094 334.707031 297.902344 333.398438 C 298.65625 331.945312 298.417969 332.527344 298.90625 330.828125 C 299.753906 326.464844 299.6875 326.808594 299.707031 326.726562 C 301.324219 322.011719 300.644531 323.503906 302.621094 317.050781 C 303.9375 313.199219 303.671875 313.839844 304.011719 313.351562 C 305.320312 310.808594 304.96875 311.546875 305.613281 310.007812 C 307.867188 305.402344 307.769531 305.617188 307.925781 304.316406 C 307.863281 303.574219 307.816406 303.855469 308.175781 303.097656 C 309.503906 300.1875 308.78125 297.261719 308.230469 294.816406 C 307.640625 292.050781 307.765625 293.164062 307.53125 289.453125 C 307.5 287.824219 307.574219 285.980469 307.503906 284.484375 C 307.402344 280.21875 307.570312 279.808594 307.910156 277.949219 C 308.460938 273.429688 307.976562 275.261719 308.476562 273.265625 C 308.789062 272.101562 308.574219 272.714844 309.472656 270.457031 C 309.863281 268.90625 309.75 269.570312 309.9375 267.5 C 310.277344 266.152344 310.476562 265.273438 311.015625 263.71875 C 312.125 260.007812 311.496094 262.285156 312.585938 256.308594 C 313.941406 250.09375 312.667969 254.125 314.210938 246.75 C 316.4375 233.234375 316.078125 233.40625 316.265625 229.480469 C 316.4375 228.378906 316.269531 227.625 316.25 225.1875 C 315.746094 221.164062 315.847656 221.859375 315.515625 220.898438 C 314.898438 218.882812 315.183594 219.691406 314.242188 217.316406 C 311.1875 208.269531 313.082031 213.527344 307.472656 205.246094 C 303.46875 200.007812 304.835938 201.824219 302.867188 198.339844 C 301.753906 195.589844 302.015625 196.472656 301.644531 194.433594 C 301.644531 191.574219 301.707031 193.152344 301.585938 191.007812 C 301.816406 189.261719 301.65625 189.960938 302.328125 187.921875 C 303.125 185.703125 302.839844 186.355469 303.582031 184.980469 C 304.46875 182.804688 304.21875 183.484375 304.722656 181.945312 C 305.738281 179.621094 305.308594 180.046875 306.601562 176.222656 C 306.757812 174.90625 306.648438 175.507812 307.117188 173.535156 C 307.277344 172.234375 308.558594 165.226562 308.5625 165.21875 C 309.050781 163.738281 309.21875 162.011719 309.824219 156.949219 C 310.6875 148.699219 310.710938 150.914062 311.523438 145.445312 C 311.917969 141.867188 311.859375 142.832031 311.828125 141.367188 C 311.949219 139.796875 311.886719 140.34375 312.097656 138.960938 C 313.074219 131.722656 312.730469 129.558594 312.417969 123.671875 C 311.996094 118.433594 312.15625 124.171875 311.945312 114.941406 C 310.539062 106.050781 311 108.75 309.265625 102.65625 C 308.742188 100.972656 309.121094 101.714844 305.300781 93.8125 C 302.628906 88.945312 303.296875 90.046875 301.164062 86.921875 C 297.394531 81.808594 297.792969 82.292969 297.464844 82.15625 C 293.464844 77.75 295.960938 80.503906 290.164062 75.039062 C 285.992188 71.898438 287.480469 72.65625 281.355469 68.730469 C 275.472656 66.121094 275.832031 66.394531 273.417969 66.34375 C 272.058594 66.367188 272.058594 66.253906 270.523438 67 C 269.570312 67.460938 269.960938 67.21875 268.816406 68.097656 C 267.777344 69.046875 268.175781 68.652344 267.058594 69.851562 C 266.25 70.953125 266.460938 70.597656 266.085938 71.433594 C 265.945312 71.738281 265.992188 71.550781 265.910156 72.238281 C 266.15625 73.292969 266.042969 73.417969 268.339844 75.746094 C 269.515625 76.578125 268.777344 75.984375 271.523438 78.378906 C 272.699219 79.554688 272.238281 79.132812 273.515625 80.234375 C 278.816406 84.214844 275.859375 82.15625 278.675781 84.125 C 280 85.417969 284.554688 89.347656 286.460938 92.679688 C 287.777344 96.015625 287.089844 94.660156 288.066406 96.328125 C 288.777344 97.417969 288.417969 96.769531 289.695312 99.328125 C 290.640625 101.09375 290.214844 100.074219 291.601562 103.992188 C 294.011719 113.578125 293.851562 114.644531 294.378906 122.886719 C 294.378906 124.828125 294.40625 124.132812 294.277344 125.9375 C 294.261719 132.355469 293.878906 128.496094 294.007812 134.105469 C 293.835938 137.015625 293.460938 137.773438 292.960938 140.847656 C 292.632812 144.207031 292.351562 144.496094 292.347656 146.519531 C 292.253906 147.78125 291.757812 149.273438 291.847656 151.046875 C 291.761719 151.808594 291.859375 151.316406 291.382812 153.253906 C 291.144531 154.671875 291.207031 154.371094 291.09375 154.78125 C 288.789062 164.042969 290.226562 158.644531 288.914062 163.875 C 286.863281 170.070312 287.167969 169.113281 285.667969 172.375 C 283.023438 176.730469 284.152344 175.757812 281.5 179.769531 C 280.820312 180.957031 281.152344 180.460938 280 181.957031 C 278.347656 183.738281 279.003906 183.15625 277.144531 184.53125 C 274.835938 185.691406 276.128906 185.128906 272.464844 186.425781 C 269.058594 187.566406 270.144531 187.035156 267.101562 188.707031 C 266.269531 189.296875 266.742188 189.042969 264.933594 189.832031 C 257.007812 194.207031 261.386719 191.398438 256.398438 194.320312 C 255.019531 195.09375 254.507812 195.257812 253.042969 196.304688 C 252.121094 196.820312 248.914062 198.617188 247.78125 199.4375 C 243.730469 202.660156 246.21875 200.289062 242.164062 204.0625 C 238.199219 209.027344 240.210938 205.945312 236.4375 211.175781 C 233.890625 214.605469 234.09375 214.335938 232.980469 216.691406 C 230.601562 220.847656 230.734375 221.476562 227.550781 228.300781 C 224.292969 236.519531 224.90625 236.082031 223.378906 240.046875 C 222.703125 241.484375 222.953125 240.90625 222.285156 242.542969 C 221.078125 245.15625 220.140625 245.960938 218.332031 247.871094 C 216.683594 249.472656 216.742188 249.417969 216.738281 249.421875 C 214.515625 251.171875 215.132812 250.730469 214.140625 251.320312 C 209.652344 254.40625 211.003906 253.847656 207.984375 254.824219 C 206.078125 255.320312 205.894531 255.523438 203.863281 254.945312 C 201.394531 254.972656 200.375 254.753906 197.625 254.644531 C 196.125 254.542969 196.617188 254.511719 195.449219 254.742188 C 194.140625 254.8125 194.871094 254.8125 192.109375 254.730469 C 190.550781 254.953125 191.148438 254.792969 189.488281 255.484375 C 188.222656 256.039062 188.65625 255.886719 186.574219 256.570312 C 185.894531 256.605469 186.199219 256.667969 185.21875 256.257812 C 184.300781 255.871094 184.664062 256.046875 183.617188 255.472656 C 181.574219 253.6875 181.949219 254.019531 181.285156 253.316406 C 181.355469 252.042969 181.707031 248.511719 180.664062 245.605469 C 180.03125 244.070312 180.355469 245.070312 179.351562 241.359375 C 178.800781 237.945312 178.035156 235.40625 177.117188 232.328125 C 176.378906 230.339844 176.691406 231.050781 175.714844 229.257812 C 174.734375 227.925781 175.089844 228.328125 174.15625 227.464844 C 172.445312 226.464844 172.242188 226.21875 170.792969 224.753906 C 170 224.015625 170.222656 224.179688 169.828125 224 C 169.5625 223.914062 169.671875 223.90625 169.347656 224.074219 C 168.722656 224.417969 168.945312 224.226562 168.371094 224.953125 C 168.242188 225.144531 168.367188 224.902344 167.683594 226.335938 C 166.820312 228.617188 167.207031 228.410156 166.511719 231.625 C 166.414062 232.976562 166.449219 232.738281 166.375 232.933594 C 165.835938 233.820312 166.019531 233.558594 165.5625 234.113281 C 164.839844 235.328125 165.484375 233.96875 163.660156 236.796875 C 163.148438 237.414062 163.609375 236.949219 161.617188 238.21875 C 159.878906 239.460938 160.019531 239.398438 157.417969 239.582031 C 155.199219 239.433594 157.285156 239.769531 153.867188 239.171875 C 150.828125 238.835938 146.875 238.351562 143.738281 238.652344 C 142.628906 238.683594 142.800781 238.675781 142.695312 238.691406 C 141.414062 239.042969 142.054688 238.792969 139.800781 239.855469 C 134.882812 242.371094 139.261719 240.40625 134.089844 242.960938 C 131.1875 243.875 132.839844 243.332031 125.5625 244.324219 C 122.800781 244.605469 122.894531 244.664062 122.410156 244.921875 C 121.984375 245.253906 122.113281 245.027344 121.914062 245.65625 C 121.289062 250.136719 121.507812 248.589844 121.59375 250.332031 C 121.023438 253.253906 121.105469 252.679688 121.101562 253.277344 C 121.183594 254.726562 121.210938 254.136719 121.125 254.878906 C 121.121094 255.757812 121.074219 255.398438 121.355469 256.457031 C 121.757812 257.679688 121.652344 257.375 121.828125 257.835938 C 121.472656 258.148438 121.617188 258.03125 121.207031 258.339844 C 120.746094 259.074219 120.910156 258.726562 120.511719 259.90625 C 120.40625 261.105469 120.410156 260.613281 120.519531 262.082031 C 120.863281 263.074219 120.742188 262.792969 121.058594 263.355469 C 122.378906 264.757812 121.78125 264.214844 123.726562 265.734375 C 127.554688 268.039062 129.496094 269.71875 133.238281 272.042969 C 135.300781 273.550781 134.839844 273.199219 135.535156 273.769531 C 137.640625 275.652344 136.90625 274.90625 138.769531 277.007812 C 143.242188 282.296875 140 278.417969 140.234375 278.800781 C 140.394531 279.230469 140.234375 278.992188 140.972656 279.785156 C 142.214844 280.996094 141.882812 280.652344 142.492188 281.339844 C 143.742188 283.265625 143.472656 282.8125 143.839844 283.535156 C 146.109375 287.636719 144.585938 284.414062 146.316406 287.851562 C 146.558594 288.867188 146.535156 288.429688 146.378906 289.800781 C 146.226562 290.648438 146.320312 290.222656 145.953125 291.730469 C 144.4375 295.601562 144.398438 295.023438 143.765625 296.59375 C 142.972656 298.113281 143.804688 296.9375 142.613281 299.160156 C 141.953125 300.917969 142.160156 300.269531 141.6875 301.992188 C 141.515625 304.175781 141.667969 301.765625 141.140625 305.878906 C 141.136719 305.886719 141.148438 305.847656 140.726562 307.261719 C 140.328125 308.46875 139.9375 309.644531 140.332031 308.449219 C 139.832031 309.457031 140.042969 309.117188 139.433594 309.960938 C 138.597656 310.714844 138.625 310.734375 138.367188 310.796875 C 137.769531 310.972656 134.210938 312.023438 134.019531 312.085938 C 131.359375 312.664062 132.632812 312.253906 129.519531 313.128906 C 127.175781 313.625 125.027344 314.136719 120.632812 314.296875 C 115.308594 314.601562 114.117188 314.523438 112.414062 314.488281 C 109.851562 314.960938 110.445312 314.816406 109.527344 315.125 C 105.277344 316.726562 106.035156 315.40625 99.15625 315.480469 C 97.132812 314.8125 97.925781 315.128906 95.675781 314.0625 C 93.976562 313.035156 94.550781 313.511719 93.136719 312.027344 C 90.929688 309.046875 90.933594 309.046875 88.851562 307.320312 C 87.863281 306.511719 88.195312 306.703125 87.378906 306.425781 C 86.550781 306.011719 86.679688 305.933594 85.132812 306 C 84.019531 306.28125 84.386719 306.097656 83.503906 306.765625 C 82.835938 307.535156 82.996094 307.300781 82.757812 307.820312 C 82.40625 308.394531 82.492188 308.226562 82.355469 308.59375 C 81.90625 309.707031 81.988281 309.375 81.957031 310.078125 C 81.839844 310.289062 81.890625 310.113281 81.722656 311.007812 C 81.945312 312.503906 81.832031 311.957031 82.234375 313.390625 C 82.820312 315.230469 82.546875 314.539062 83.351562 316.132812 C 83.867188 316.789062 83.652344 316.570312 84.285156 317.070312 C 84.597656 317.3125 84.566406 317.28125 84.570312 317.296875 C 84.535156 317.402344 84.570312 317.339844 84.394531 317.585938 C 84.28125 318.539062 84.292969 318.019531 84.363281 319.949219 C 84.488281 321.226562 84.402344 320.859375 84.726562 321.597656 C 84.722656 321.679688 84.855469 321.675781 83.832031 321.53125 C 82.613281 321.433594 83.042969 321.496094 81.949219 321.277344 C 80.332031 321.148438 79.074219 321.007812 77.378906 321.484375 C 76.738281 321.6875 77.054688 321.53125 75.953125 322.203125 C 75.011719 323.175781 75.207031 323 74.933594 323.164062 L 74.695312 323.726562 Z M 74.691406 323.726562 "/></g><g style="fill:#ffffff;fill-opacity:1;"><g transform="translate(30.305239, 160.79242)"><path style="stroke:none" d="M 36.09375 -22.609375 L 26.140625 -22.609375 C 26.066406 -23.429688 25.878906 -24.175781 25.578125 -24.84375 C 25.273438 -25.519531 24.863281 -26.101562 24.34375 -26.59375 C 23.820312 -27.082031 23.1875 -27.457031 22.4375 -27.71875 C 21.695312 -27.976562 20.859375 -28.109375 19.921875 -28.109375 C 18.273438 -28.109375 16.882812 -27.707031 15.75 -26.90625 C 14.613281 -26.113281 13.753906 -24.96875 13.171875 -23.46875 C 12.585938 -21.976562 12.296875 -20.179688 12.296875 -18.078125 C 12.296875 -15.867188 12.59375 -14.019531 13.1875 -12.53125 C 13.78125 -11.039062 14.640625 -9.921875 15.765625 -9.171875 C 16.898438 -8.421875 18.257812 -8.046875 19.84375 -8.046875 C 20.757812 -8.046875 21.570312 -8.160156 22.28125 -8.390625 C 23 -8.628906 23.625 -8.960938 24.15625 -9.390625 C 24.6875 -9.828125 25.117188 -10.351562 25.453125 -10.96875 C 25.796875 -11.59375 26.023438 -12.289062 26.140625 -13.0625 L 36.09375 -13 C 35.976562 -11.46875 35.550781 -9.910156 34.8125 -8.328125 C 34.070312 -6.742188 33.019531 -5.28125 31.65625 -3.9375 C 30.300781 -2.601562 28.617188 -1.53125 26.609375 -0.71875 C 24.609375 0.09375 22.285156 0.5 19.640625 0.5 C 16.316406 0.5 13.335938 -0.210938 10.703125 -1.640625 C 8.078125 -3.066406 6 -5.160156 4.46875 -7.921875 C 2.945312 -10.691406 2.1875 -14.078125 2.1875 -18.078125 C 2.1875 -22.109375 2.960938 -25.503906 4.515625 -28.265625 C 6.078125 -31.023438 8.175781 -33.113281 10.8125 -34.53125 C 13.445312 -35.957031 16.390625 -36.671875 19.640625 -36.671875 C 21.921875 -36.671875 24.019531 -36.359375 25.9375 -35.734375 C 27.863281 -35.109375 29.550781 -34.195312 31 -33 C 32.445312 -31.800781 33.609375 -30.332031 34.484375 -28.59375 C 35.367188 -26.851562 35.90625 -24.859375 36.09375 -22.609375 Z M 36.09375 -22.609375 "/></g></g><g style="fill:#ffffff;fill-opacity:1;"><g transform="translate(65.777364, 160.79242)"><path style="stroke:none" d="M 2.328125 0 L 2.328125 -36.171875 L 12.15625 -36.171875 L 12.15625 -7.90625 L 26.78125 -7.90625 L 26.78125 0 Z M 2.328125 0 "/></g></g><g style="fill:#ffffff;fill-opacity:1;"><g transform="translate(91.432619, 160.79242)"><path style="stroke:none" d="M 11.734375 0 L 1.125 0 L 13.0625 -36.171875 L 26.484375 -36.171875 L 38.4375 0 L 27.828125 0 L 19.921875 -26.203125 L 19.640625 -26.203125 Z M 9.75 -14.265625 L 29.671875 -14.265625 L 29.671875 -6.921875 L 9.75 -6.921875 Z M 9.75 -14.265625 "/></g></g><g style="fill:#ffffff;fill-opacity:1;"><g transform="translate(124.007598, 160.79242)"><path style="stroke:none" d="M 11.515625 0 L 0.84375 -36.171875 L 11.796875 -36.171875 L 16.75 -13.921875 L 17.03125 -13.921875 L 22.890625 -36.171875 L 31.515625 -36.171875 L 37.375 -13.84375 L 37.65625 -13.84375 L 42.59375 -36.171875 L 53.546875 -36.171875 L 42.875 0 L 33.484375 0 L 27.34375 -20.203125 L 27.0625 -20.203125 L 20.90625 0 Z M 11.515625 0 "/></g></g><g style="fill:#ffffff;fill-opacity:1;"><g transform="translate(33.82524, 202.717595)"><path style="stroke:none" d="M 21.828125 -24.859375 C 21.734375 -26.046875 21.296875 -26.96875 20.515625 -27.625 C 19.734375 -28.28125 18.546875 -28.609375 16.953125 -28.609375 C 15.941406 -28.609375 15.113281 -28.488281 14.46875 -28.25 C 13.832031 -28.007812 13.359375 -27.679688 13.046875 -27.265625 C 12.742188 -26.859375 12.585938 -26.390625 12.578125 -25.859375 C 12.554688 -25.421875 12.632812 -25.023438 12.8125 -24.671875 C 13 -24.328125 13.289062 -24.015625 13.6875 -23.734375 C 14.082031 -23.460938 14.59375 -23.210938 15.21875 -22.984375 C 15.84375 -22.765625 16.585938 -22.566406 17.453125 -22.390625 L 20.421875 -21.765625 C 22.421875 -21.335938 24.128906 -20.773438 25.546875 -20.078125 C 26.972656 -19.378906 28.140625 -18.5625 29.046875 -17.625 C 29.953125 -16.695312 30.617188 -15.648438 31.046875 -14.484375 C 31.484375 -13.316406 31.707031 -12.046875 31.71875 -10.671875 C 31.707031 -8.285156 31.113281 -6.269531 29.9375 -4.625 C 28.757812 -2.976562 27.078125 -1.722656 24.890625 -0.859375 C 22.710938 -0.00390625 20.09375 0.421875 17.03125 0.421875 C 13.882812 0.421875 11.140625 -0.0390625 8.796875 -0.96875 C 6.460938 -1.894531 4.648438 -3.328125 3.359375 -5.265625 C 2.078125 -7.203125 1.425781 -9.6875 1.40625 -12.71875 L 10.734375 -12.71875 C 10.796875 -11.613281 11.070312 -10.679688 11.5625 -9.921875 C 12.0625 -9.171875 12.757812 -8.597656 13.65625 -8.203125 C 14.5625 -7.816406 15.640625 -7.625 16.890625 -7.625 C 17.929688 -7.625 18.804688 -7.753906 19.515625 -8.015625 C 20.222656 -8.273438 20.757812 -8.632812 21.125 -9.09375 C 21.488281 -9.550781 21.675781 -10.078125 21.6875 -10.671875 C 21.675781 -11.222656 21.492188 -11.707031 21.140625 -12.125 C 20.796875 -12.539062 20.226562 -12.914062 19.4375 -13.25 C 18.65625 -13.59375 17.59375 -13.910156 16.25 -14.203125 L 12.640625 -14.984375 C 9.441406 -15.671875 6.921875 -16.828125 5.078125 -18.453125 C 3.234375 -20.085938 2.316406 -22.320312 2.328125 -25.15625 C 2.316406 -27.445312 2.929688 -29.453125 4.171875 -31.171875 C 5.421875 -32.898438 7.144531 -34.25 9.34375 -35.21875 C 11.550781 -36.1875 14.085938 -36.671875 16.953125 -36.671875 C 19.867188 -36.671875 22.394531 -36.179688 24.53125 -35.203125 C 26.664062 -34.222656 28.3125 -32.847656 29.46875 -31.078125 C 30.625 -29.304688 31.207031 -27.234375 31.21875 -24.859375 Z M 21.828125 -24.859375 "/></g></g><g style="fill:#ffffff;fill-opacity:1;"><g transform="translate(64.212355, 202.717595)"><path style="stroke:none" d="M 2.328125 0 L 2.328125 -36.171875 L 28.40625 -36.171875 L 28.40625 -28.265625 L 12.15625 -28.265625 L 12.15625 -22.046875 L 27.0625 -22.046875 L 27.0625 -14.125 L 12.15625 -14.125 L 12.15625 -7.90625 L 28.328125 -7.90625 L 28.328125 0 Z M 2.328125 0 "/></g></g><g style="fill:#ffffff;fill-opacity:1;"><g transform="translate(92.410101, 202.717595)"><path style="stroke:none" d="M 11.734375 0 L 1.125 0 L 13.0625 -36.171875 L 26.484375 -36.171875 L 38.4375 0 L 27.828125 0 L 19.921875 -26.203125 L 19.640625 -26.203125 Z M 9.75 -14.265625 L 29.671875 -14.265625 L 29.671875 -6.921875 L 9.75 -6.921875 Z M 9.75 -14.265625 "/></g></g><g style="fill:#ffffff;fill-opacity:1;"><g transform="translate(129.224087, 202.717595)"><path style="stroke:none" d="M 2.328125 0 L 2.328125 -36.171875 L 17.9375 -36.171875 C 20.625 -36.171875 22.972656 -35.679688 24.984375 -34.703125 C 27.003906 -33.722656 28.570312 -32.316406 29.6875 -30.484375 C 30.800781 -28.648438 31.359375 -26.445312 31.359375 -23.875 C 31.359375 -21.289062 30.785156 -19.109375 29.640625 -17.328125 C 28.492188 -15.546875 26.882812 -14.203125 24.8125 -13.296875 C 22.75 -12.390625 20.34375 -11.9375 17.59375 -11.9375 L 8.265625 -11.9375 L 8.265625 -19.5625 L 15.609375 -19.5625 C 16.765625 -19.5625 17.75 -19.707031 18.5625 -20 C 19.382812 -20.289062 20.015625 -20.753906 20.453125 -21.390625 C 20.898438 -22.023438 21.125 -22.851562 21.125 -23.875 C 21.125 -24.914062 20.898438 -25.757812 20.453125 -26.40625 C 20.015625 -27.0625 19.382812 -27.546875 18.5625 -27.859375 C 17.75 -28.171875 16.765625 -28.328125 15.609375 -28.328125 L 12.15625 -28.328125 L 12.15625 0 Z M 23.53125 -16.609375 L 32.5625 0 L 21.90625 0 L 13.0625 -16.609375 Z M 23.53125 -16.609375 "/></g></g><g style="fill:#ffffff;fill-opacity:1;"><g transform="translate(159.681831, 202.717595)"><path style="stroke:none" d="M 36.09375 -22.609375 L 26.140625 -22.609375 C 26.066406 -23.429688 25.878906 -24.175781 25.578125 -24.84375 C 25.273438 -25.519531 24.863281 -26.101562 24.34375 -26.59375 C 23.820312 -27.082031 23.1875 -27.457031 22.4375 -27.71875 C 21.695312 -27.976562 20.859375 -28.109375 19.921875 -28.109375 C 18.273438 -28.109375 16.882812 -27.707031 15.75 -26.90625 C 14.613281 -26.113281 13.753906 -24.96875 13.171875 -23.46875 C 12.585938 -21.976562 12.296875 -20.179688 12.296875 -18.078125 C 12.296875 -15.867188 12.59375 -14.019531 13.1875 -12.53125 C 13.78125 -11.039062 14.640625 -9.921875 15.765625 -9.171875 C 16.898438 -8.421875 18.257812 -8.046875 19.84375 -8.046875 C 20.757812 -8.046875 21.570312 -8.160156 22.28125 -8.390625 C 23 -8.628906 23.625 -8.960938 24.15625 -9.390625 C 24.6875 -9.828125 25.117188 -10.351562 25.453125 -10.96875 C 25.796875 -11.59375 26.023438 -12.289062 26.140625 -13.0625 L 36.09375 -13 C 35.976562 -11.46875 35.550781 -9.910156 34.8125 -8.328125 C 34.070312 -6.742188 33.019531 -5.28125 31.65625 -3.9375 C 30.300781 -2.601562 28.617188 -1.53125 26.609375 -0.71875 C 24.609375 0.09375 22.285156 0.5 19.640625 0.5 C 16.316406 0.5 13.335938 -0.210938 10.703125 -1.640625 C 8.078125 -3.066406 6 -5.160156 4.46875 -7.921875 C 2.945312 -10.691406 2.1875 -14.078125 2.1875 -18.078125 C 2.1875 -22.109375 2.960938 -25.503906 4.515625 -28.265625 C 6.078125 -31.023438 8.175781 -33.113281 10.8125 -34.53125 C 13.445312 -35.957031 16.390625 -36.671875 19.640625 -36.671875 C 21.921875 -36.671875 24.019531 -36.359375 25.9375 -35.734375 C 27.863281 -35.109375 29.550781 -34.195312 31 -33 C 32.445312 -31.800781 33.609375 -30.332031 34.484375 -28.59375 C 35.367188 -26.851562 35.90625 -24.859375 36.09375 -22.609375 Z M 36.09375 -22.609375 "/></g></g><g style="fill:#ffffff;fill-opacity:1;"><g transform="translate(195.153956, 202.717595)"><path style="stroke:none" d="M 2.328125 0 L 2.328125 -36.171875 L 12.15625 -36.171875 L 12.15625 -22.046875 L 25.15625 -22.046875 L 25.15625 -36.171875 L 34.96875 -36.171875 L 34.96875 0 L 25.15625 0 L 25.15625 -14.125 L 12.15625 -14.125 L 12.15625 0 Z M 2.328125 0 "/></g></g></g></svg>