<svg xmlns="http://www.w3.org/2000/svg" xmlns:xlink="http://www.w3.org/1999/xlink" width="1000" zoomAndPan="magnify" viewBox="0 0 750 749.999995" height="1000" preserveAspectRatio="xMidYMid meet" version="1.2"><defs><clipPath id="7142a65dc4"><path d="M 5.644531 5 L 744.289062 5 L 744.289062 744.3125 L 5.644531 744.3125 Z M 5.644531 5 "/></clipPath><clipPath id="57b3904a58"><path d="M 712.789062 744.3125 L 37.144531 744.3125 C 28.789062 744.3125 20.777344 740.992188 14.871094 735.085938 C 8.964844 729.179688 5.644531 721.167969 5.644531 712.8125 L 5.644531 37.128906 C 5.644531 28.777344 8.964844 20.761719 14.871094 14.855469 C 20.777344 8.949219 28.789062 5.628906 37.144531 5.628906 L 712.789062 5.628906 C 721.144531 5.628906 729.15625 8.949219 735.0625 14.855469 C 740.972656 20.761719 744.289062 28.777344 744.289062 37.128906 L 744.289062 712.8125 C 744.289062 721.167969 740.972656 729.179688 735.0625 735.085938 C 729.15625 740.992188 721.144531 744.3125 712.789062 744.3125 Z M 712.789062 744.3125 "/></clipPath><clipPath id="e24fecb31f"><path d="M 92.042969 92.042969 L 657.957031 92.042969 L 657.957031 657.957031 L 92.042969 657.957031 Z M 92.042969 92.042969 "/></clipPath><clipPath id="4370cbbb22"><path d="M 375 92.042969 C 218.726562 92.042969 92.042969 218.726562 92.042969 375 C 92.042969 531.273438 218.726562 657.957031 375 657.957031 C 531.273438 657.957031 657.957031 531.273438 657.957031 375 C 657.957031 218.726562 531.273438 92.042969 375 92.042969 Z M 375 92.042969 "/></clipPath><clipPath id="fd63efd934"><path d="M 201 189 L 572.742188 189 L 572.742188 605 L 201 605 Z M 201 189 "/></clipPath></defs><g id="697e0180c2"><g clip-rule="nonzero" clip-path="url(#7142a65dc4)"><g clip-rule="nonzero" clip-path="url(#57b3904a58)"><path style=" stroke:none;fill-rule:nonzero;fill:#000000;fill-opacity:1;" d="M 744.289062 744.3125 L 5.644531 744.3125 L 5.644531 5.667969 L 744.289062 5.667969 Z M 744.289062 744.3125 "/></g></g><g clip-rule="nonzero" clip-path="url(#e24fecb31f)"><g clip-rule="nonzero" clip-path="url(#4370cbbb22)"><path style=" stroke:none;fill-rule:nonzero;fill:#6272a4;fill-opacity:1;" d="M 92.042969 92.042969 L 657.957031 92.042969 L 657.957031 657.957031 L 92.042969 657.957031 Z M 92.042969 92.042969 "/></g></g><g clip-rule="nonzero" clip-path="url(#fd63efd934)"><path style=" stroke:none;fill-rule:nonzero;fill:#ffffff;fill-opacity:1;" d="M 201.460938 584.488281 C 201.648438 585.871094 201.511719 585.183594 202.101562 587.589844 C 202.511719 588.367188 202.359375 588.050781 202.757812 588.960938 C 202.679688 589.121094 202.710938 588.917969 202.621094 590.167969 C 202.902344 591.546875 202.714844 590.945312 203.507812 592.84375 C 204.136719 594.308594 203.863281 593.90625 205.296875 595.921875 C 206.117188 596.609375 205.785156 596.355469 206.769531 597.027344 C 208.382812 597.5 207.675781 597.25 209.925781 598.160156 C 210.804688 599.871094 210.523438 599.449219 211.179688 600.117188 C 212.46875 601.058594 212.074219 600.820312 212.945312 601.226562 C 214.074219 601.582031 213.695312 601.355469 214.570312 602.273438 C 215.046875 602.632812 214.71875 602.417969 216.03125 603.203125 C 217.464844 603.757812 216.113281 603.496094 221.78125 603.9375 C 255.90625 604.425781 319.746094 604.601562 319.753906 604.601562 C 331.105469 604.371094 327.957031 604.71875 334.757812 603.777344 C 340.609375 603.449219 340.007812 603.460938 341.273438 602.976562 C 343.203125 601.527344 340.390625 603.371094 349.488281 599.136719 C 352.871094 597.972656 352.199219 598.253906 352.992188 597.773438 C 355.53125 596.882812 354.707031 597.15625 356.660156 596.542969 C 362.90625 595.308594 359.898438 595.410156 362.394531 595.335938 C 370.128906 592.96875 362.6875 594.710938 373.472656 592.265625 C 378.839844 590.191406 376.867188 590.660156 387.726562 588.332031 C 392.023438 587.832031 390.761719 588.054688 395.167969 587.074219 C 398.292969 586.371094 397.816406 586.925781 402.367188 585.996094 C 409 584.972656 411.125 584.277344 411.46875 584.222656 C 419.175781 582.296875 430.203125 578.570312 438.015625 575.3125 C 442.058594 573.988281 442.246094 573.820312 444.363281 573.757812 C 447.734375 571.226562 445.511719 572.441406 448.269531 570.867188 C 464.566406 562.957031 464.839844 562.179688 472.863281 556.796875 C 484.949219 548.949219 482.628906 551.085938 490.035156 544.59375 C 491.753906 542.25 489.59375 545.148438 493.984375 540.546875 C 500.035156 534.695312 499.15625 534.179688 504.15625 527.625 C 507.558594 522.3125 506.933594 522.957031 507.4375 522.816406 C 509.066406 521.90625 508.734375 522.097656 509.613281 521.191406 C 510.46875 519.832031 510.324219 520.089844 510.425781 519.820312 L 510.84375 519.414062 C 511.933594 519.800781 511.066406 519.519531 512.273438 519.699219 C 512.808594 522.039062 512.488281 520.453125 512.929688 521.871094 C 513.429688 522.546875 513.210938 522.382812 513.871094 522.628906 C 514.285156 523.855469 514.445312 524.078125 514.675781 527.597656 C 517.464844 536.742188 517.074219 532.972656 519.136719 542.15625 C 520 545.234375 519.648438 544.113281 520.691406 547.039062 C 523.417969 557.183594 523.355469 557.601562 523.613281 562.652344 C 523.234375 565.214844 523.394531 564.109375 522.910156 567.582031 C 521.996094 570.066406 522.355469 569.261719 521.34375 571.15625 C 519.90625 574.136719 520.480469 573.046875 518.847656 575.929688 C 519.351562 575.59375 519.664062 575.09375 516.960938 578.59375 C 514.132812 582.59375 513.609375 582.339844 511.675781 585.453125 C 510.363281 586.976562 510.6875 586.675781 510.132812 587.019531 C 508.230469 587.714844 508.882812 587.617188 507.261719 587.535156 C 504.367188 587.445312 505.214844 587.34375 503.441406 587.910156 C 501.695312 588.964844 502.574219 588.292969 499.445312 591.019531 C 498.183594 592.316406 498.417969 592.070312 498.1875 592.339844 C 495.839844 595.859375 495.285156 597.636719 494.929688 598.542969 C 494.867188 600.015625 494.738281 599.476562 495.824219 602.511719 C 497.957031 605.117188 499.039062 604.476562 528.171875 604.578125 C 532.328125 604.546875 532.957031 604.679688 537.367188 603.882812 C 539.007812 603.710938 538.414062 603.816406 539.953125 603.398438 C 542.441406 602.203125 542.859375 601.347656 544.253906 599.335938 C 545.40625 597.105469 545.042969 598 545.796875 595.394531 C 547.097656 588.6875 546.992188 589.214844 547.019531 589.09375 C 549.511719 581.847656 548.464844 584.140625 551.5 574.234375 C 553.523438 568.316406 553.113281 569.300781 553.632812 568.550781 C 555.644531 564.644531 555.105469 565.78125 556.09375 563.414062 C 559.554688 556.34375 559.410156 556.671875 559.644531 554.675781 C 559.550781 553.539062 559.480469 553.96875 560.027344 552.800781 C 562.070312 548.335938 560.960938 543.839844 560.117188 540.082031 C 559.207031 535.835938 559.402344 537.546875 559.039062 531.847656 C 558.992188 529.351562 559.109375 526.515625 558.996094 524.21875 C 558.84375 517.667969 559.101562 517.035156 559.621094 514.183594 C 560.464844 507.242188 559.726562 510.058594 560.492188 506.988281 C 560.96875 505.199219 560.640625 506.144531 562.023438 502.675781 C 562.621094 500.292969 562.449219 501.3125 562.734375 498.132812 C 563.253906 496.066406 563.5625 494.714844 564.394531 492.324219 C 566.09375 486.628906 565.128906 490.125 566.800781 480.949219 C 568.882812 471.40625 566.925781 477.59375 569.296875 466.265625 C 572.714844 445.511719 572.167969 445.777344 572.449219 439.746094 C 572.714844 438.054688 572.460938 436.898438 572.433594 433.15625 C 571.660156 426.976562 571.808594 428.042969 571.300781 426.566406 C 570.355469 423.46875 570.789062 424.714844 569.347656 421.066406 C 564.65625 407.171875 567.566406 415.246094 558.949219 402.527344 C 552.800781 394.484375 554.902344 397.273438 551.875 391.921875 C 550.167969 387.703125 550.570312 389.054688 550 385.925781 C 549.996094 381.53125 550.097656 383.960938 549.90625 380.667969 C 550.261719 377.980469 550.019531 379.054688 551.050781 375.921875 C 552.273438 372.519531 551.835938 373.519531 552.976562 371.40625 C 554.335938 368.066406 553.953125 369.109375 554.722656 366.742188 C 556.285156 363.175781 555.625 363.832031 557.609375 357.957031 C 557.851562 355.9375 557.683594 356.859375 558.402344 353.832031 C 558.652344 351.828125 560.621094 341.070312 560.621094 341.058594 C 561.375 338.785156 561.632812 336.132812 562.5625 328.359375 C 563.886719 315.691406 563.925781 319.085938 565.171875 310.6875 C 565.773438 305.199219 565.6875 306.675781 565.636719 304.425781 C 565.828125 302.015625 565.730469 302.855469 566.050781 300.734375 C 567.554688 289.617188 567.027344 286.289062 566.546875 277.253906 C 565.894531 269.207031 566.144531 278.023438 565.820312 263.847656 C 563.660156 250.191406 564.371094 254.335938 561.703125 244.976562 C 560.902344 242.394531 561.484375 243.535156 555.617188 231.398438 C 551.515625 223.925781 552.539062 225.617188 549.261719 220.816406 C 543.476562 212.960938 544.082031 213.703125 543.582031 213.496094 C 537.441406 206.730469 541.273438 210.960938 532.371094 202.566406 C 525.960938 197.746094 528.246094 198.90625 518.839844 192.878906 C 509.808594 188.871094 510.359375 189.292969 506.652344 189.210938 C 504.566406 189.246094 504.566406 189.074219 502.207031 190.21875 C 500.746094 190.925781 501.339844 190.554688 499.582031 191.90625 C 497.984375 193.363281 498.601562 192.753906 496.882812 194.597656 C 495.640625 196.292969 495.964844 195.746094 495.390625 197.027344 C 495.175781 197.5 495.25 197.207031 495.125 198.265625 C 495.5 199.882812 495.328125 200.074219 498.851562 203.652344 C 500.65625 204.925781 499.523438 204.015625 503.742188 207.695312 C 505.546875 209.5 504.839844 208.851562 506.804688 210.542969 C 514.941406 216.65625 510.398438 213.492188 514.726562 216.519531 C 516.757812 218.503906 523.753906 224.539062 526.683594 229.65625 C 528.707031 234.78125 527.648438 232.699219 529.144531 235.261719 C 530.242188 236.933594 529.6875 235.933594 531.644531 239.867188 C 533.097656 242.574219 532.445312 241.015625 534.574219 247.03125 C 538.28125 261.75 538.035156 263.390625 538.839844 276.046875 C 538.839844 279.027344 538.882812 277.960938 538.683594 280.734375 C 538.664062 290.585938 538.074219 284.660156 538.273438 293.277344 C 538.003906 297.746094 537.429688 298.910156 536.664062 303.628906 C 536.160156 308.789062 535.726562 309.234375 535.71875 312.339844 C 535.578125 314.277344 534.816406 316.566406 534.957031 319.292969 C 534.824219 320.460938 534.96875 319.707031 534.238281 322.679688 C 533.875 324.859375 533.972656 324.398438 533.792969 325.027344 C 530.257812 339.253906 532.464844 330.960938 530.449219 338.996094 C 527.300781 348.511719 527.765625 347.042969 525.464844 352.046875 C 521.402344 358.738281 523.140625 357.242188 519.0625 363.40625 C 518.015625 365.226562 518.527344 364.46875 516.757812 366.765625 C 514.21875 369.496094 515.230469 368.605469 512.371094 370.714844 C 508.828125 372.496094 510.8125 371.636719 505.1875 373.625 C 499.957031 375.378906 501.625 374.566406 496.949219 377.125 C 495.671875 378.035156 496.398438 377.644531 493.621094 378.859375 C 481.445312 385.578125 488.171875 381.261719 480.511719 385.75 C 478.398438 386.9375 477.609375 387.191406 475.359375 388.796875 C 473.945312 389.585938 469.019531 392.347656 467.277344 393.605469 C 461.058594 398.558594 464.882812 394.917969 458.65625 400.710938 C 452.566406 408.335938 455.652344 403.605469 449.863281 411.632812 C 445.949219 416.902344 446.261719 416.488281 444.546875 420.109375 C 440.894531 426.488281 441.097656 427.457031 436.210938 437.933594 C 431.210938 450.558594 432.152344 449.886719 429.804688 455.972656 C 428.765625 458.183594 429.152344 457.296875 428.128906 459.8125 C 426.273438 463.820312 424.832031 465.054688 422.050781 467.988281 C 419.523438 470.449219 419.613281 470.367188 419.601562 470.371094 C 416.195312 473.058594 417.144531 472.382812 415.617188 473.285156 C 408.726562 478.027344 410.796875 477.167969 406.160156 478.671875 C 403.230469 479.433594 402.957031 479.746094 399.835938 478.855469 C 396.039062 478.894531 394.476562 478.5625 390.25 478.390625 C 387.949219 478.238281 388.703125 478.191406 386.914062 478.542969 C 384.902344 478.648438 386.027344 478.648438 381.777344 478.523438 C 379.386719 478.867188 380.304688 478.617188 377.753906 479.679688 C 375.8125 480.535156 376.480469 480.296875 373.28125 481.347656 C 372.238281 481.40625 372.707031 481.5 371.199219 480.871094 C 369.789062 480.273438 370.347656 480.542969 368.738281 479.667969 C 365.605469 476.925781 366.175781 477.433594 365.15625 476.355469 C 365.265625 474.398438 365.808594 468.972656 364.203125 464.511719 C 363.234375 462.152344 363.730469 463.6875 362.191406 457.988281 C 361.339844 452.746094 360.167969 448.847656 358.753906 444.121094 C 357.625 441.070312 358.105469 442.15625 356.605469 439.402344 C 355.097656 437.363281 355.640625 437.972656 354.210938 436.65625 C 351.582031 435.117188 351.273438 434.734375 349.042969 432.488281 C 347.828125 431.355469 348.167969 431.605469 347.5625 431.332031 C 347.160156 431.203125 347.324219 431.1875 346.828125 431.441406 C 345.867188 431.972656 346.210938 431.675781 345.328125 432.792969 C 345.128906 433.085938 345.320312 432.71875 344.269531 434.917969 C 342.945312 438.421875 343.539062 438.101562 342.46875 443.042969 C 342.324219 445.113281 342.371094 444.75 342.257812 445.046875 C 341.433594 446.410156 341.71875 446.007812 341.015625 446.859375 C 339.90625 448.726562 340.894531 446.640625 338.089844 450.980469 C 337.304688 451.933594 338.011719 451.21875 334.957031 453.164062 C 332.285156 455.074219 332.5 454.976562 328.507812 455.261719 C 325.097656 455.03125 328.296875 455.550781 323.050781 454.632812 C 318.382812 454.117188 312.3125 453.375 307.496094 453.832031 C 305.796875 453.878906 306.058594 453.867188 305.894531 453.890625 C 303.929688 454.433594 304.910156 454.050781 301.449219 455.683594 C 293.894531 459.542969 300.621094 456.523438 292.675781 460.449219 C 288.21875 461.851562 290.761719 461.019531 279.585938 462.542969 C 275.34375 462.972656 275.484375 463.066406 274.742188 463.460938 C 274.089844 463.96875 274.289062 463.621094 273.980469 464.585938 C 273.019531 471.46875 273.359375 469.09375 273.488281 471.769531 C 272.609375 476.257812 272.738281 475.378906 272.734375 476.296875 C 272.859375 478.519531 272.902344 477.609375 272.765625 478.753906 C 272.761719 480.101562 272.6875 479.554688 273.125 481.179688 C 273.742188 483.054688 273.578125 482.589844 273.851562 483.292969 C 273.304688 483.773438 273.523438 483.59375 272.894531 484.066406 C 272.1875 485.191406 272.4375 484.660156 271.824219 486.476562 C 271.667969 488.316406 271.671875 487.5625 271.839844 489.8125 C 272.367188 491.335938 272.179688 490.90625 272.667969 491.769531 C 274.695312 493.921875 273.777344 493.089844 276.761719 495.421875 C 282.644531 498.964844 285.625 501.542969 291.367188 505.113281 C 294.542969 507.429688 293.828125 506.886719 294.898438 507.761719 C 298.132812 510.65625 297.003906 509.507812 299.867188 512.734375 C 306.730469 520.863281 301.753906 514.898438 302.113281 515.488281 C 302.363281 516.148438 302.113281 515.785156 303.25 517.003906 C 305.160156 518.863281 304.648438 518.335938 305.582031 519.390625 C 307.503906 522.347656 307.089844 521.648438 307.65625 522.757812 C 311.136719 529.0625 308.800781 524.109375 311.457031 529.390625 C 311.828125 530.953125 311.792969 530.28125 311.550781 532.386719 C 311.316406 533.6875 311.460938 533.035156 310.898438 535.34375 C 308.574219 541.289062 308.511719 540.402344 307.539062 542.816406 C 306.320312 545.152344 307.597656 543.34375 305.769531 546.757812 C 304.753906 549.453125 305.070312 548.460938 304.347656 551.109375 C 304.082031 554.460938 304.320312 550.761719 303.503906 557.078125 C 303.5 557.085938 303.519531 557.023438 302.871094 559.195312 C 302.257812 561.050781 301.664062 562.859375 302.265625 561.027344 C 301.5 562.574219 301.820312 562.046875 300.886719 563.34375 C 299.605469 564.503906 299.644531 564.53125 299.25 564.628906 C 298.328125 564.898438 292.863281 566.507812 292.570312 566.605469 C 288.484375 567.492188 290.441406 566.867188 285.660156 568.207031 C 282.058594 568.96875 278.761719 569.757812 272.015625 570.003906 C 263.835938 570.46875 262.007812 570.351562 259.386719 570.292969 C 255.453125 571.023438 256.367188 570.800781 254.960938 571.273438 C 248.429688 573.738281 249.59375 571.707031 239.03125 571.820312 C 235.925781 570.792969 237.140625 571.277344 233.6875 569.640625 C 231.074219 568.066406 231.957031 568.796875 229.785156 566.519531 C 226.394531 561.941406 226.402344 561.9375 223.203125 559.285156 C 221.683594 558.050781 222.195312 558.34375 220.945312 557.917969 C 219.671875 557.28125 219.867188 557.160156 217.496094 557.257812 C 215.785156 557.695312 216.351562 557.414062 214.992188 558.433594 C 213.96875 559.621094 214.214844 559.257812 213.847656 560.058594 C 213.304688 560.941406 213.4375 560.679688 213.230469 561.242188 C 212.539062 562.953125 212.664062 562.445312 212.617188 563.527344 C 212.433594 563.851562 212.515625 563.578125 212.257812 564.949219 C 212.597656 567.25 212.425781 566.410156 213.042969 568.613281 C 213.941406 571.4375 213.523438 570.375 214.753906 572.824219 C 215.546875 573.832031 215.222656 573.496094 216.195312 574.261719 C 216.671875 574.632812 216.621094 574.589844 216.632812 574.609375 C 216.574219 574.773438 216.628906 574.675781 216.355469 575.050781 C 216.1875 576.515625 216.203125 575.71875 216.308594 578.683594 C 216.507812 580.644531 216.371094 580.082031 216.871094 581.214844 C 216.859375 581.339844 217.066406 581.332031 215.496094 581.113281 C 213.625 580.964844 214.28125 581.058594 212.601562 580.726562 C 210.121094 580.523438 208.1875 580.308594 205.589844 581.042969 C 204.601562 581.351562 205.085938 581.117188 203.398438 582.144531 C 201.949219 583.636719 202.253906 583.371094 201.832031 583.621094 L 201.464844 584.488281 Z M 201.460938 584.488281 "/></g><g style="fill:#ffffff;fill-opacity:1;"><g transform="translate(133.947198, 334.044838)"><path style="stroke:none" d="M 55.359375 -34.671875 L 40.078125 -34.671875 C 39.972656 -35.929688 39.6875 -37.078125 39.21875 -38.109375 C 38.757812 -39.140625 38.128906 -40.023438 37.328125 -40.765625 C 36.523438 -41.515625 35.554688 -42.09375 34.421875 -42.5 C 33.285156 -42.90625 31.992188 -43.109375 30.546875 -43.109375 C 28.023438 -43.109375 25.890625 -42.492188 24.140625 -41.265625 C 22.398438 -40.046875 21.082031 -38.285156 20.1875 -35.984375 C 19.289062 -33.691406 18.84375 -30.941406 18.84375 -27.734375 C 18.84375 -24.335938 19.296875 -21.5 20.203125 -19.21875 C 21.117188 -16.9375 22.441406 -15.21875 24.171875 -14.0625 C 25.910156 -12.914062 28 -12.34375 30.4375 -12.34375 C 31.832031 -12.34375 33.078125 -12.519531 34.171875 -12.875 C 35.273438 -13.226562 36.234375 -13.738281 37.046875 -14.40625 C 37.859375 -15.070312 38.519531 -15.878906 39.03125 -16.828125 C 39.550781 -17.773438 39.898438 -18.847656 40.078125 -20.046875 L 55.359375 -19.9375 C 55.179688 -17.582031 54.519531 -15.191406 53.375 -12.765625 C 52.238281 -10.335938 50.628906 -8.097656 48.546875 -6.046875 C 46.460938 -4.003906 43.882812 -2.359375 40.8125 -1.109375 C 37.738281 0.140625 34.171875 0.765625 30.109375 0.765625 C 25.023438 0.765625 20.460938 -0.328125 16.421875 -2.515625 C 12.390625 -4.703125 9.203125 -7.914062 6.859375 -12.15625 C 4.523438 -16.40625 3.359375 -21.597656 3.359375 -27.734375 C 3.359375 -33.910156 4.550781 -39.113281 6.9375 -43.34375 C 9.320312 -47.582031 12.535156 -50.785156 16.578125 -52.953125 C 20.617188 -55.128906 25.128906 -56.21875 30.109375 -56.21875 C 33.617188 -56.21875 36.84375 -55.738281 39.78125 -54.78125 C 42.726562 -53.832031 45.3125 -52.441406 47.53125 -50.609375 C 49.75 -48.773438 51.535156 -46.519531 52.890625 -43.84375 C 54.242188 -41.175781 55.066406 -38.117188 55.359375 -34.671875 Z M 55.359375 -34.671875 "/></g></g><g style="fill:#ffffff;fill-opacity:1;"><g transform="translate(188.342488, 334.044838)"><path style="stroke:none" d="M 3.578125 0 L 3.578125 -55.46875 L 18.640625 -55.46875 L 18.640625 -12.140625 L 41.0625 -12.140625 L 41.0625 0 Z M 3.578125 0 "/></g></g><g style="fill:#ffffff;fill-opacity:1;"><g transform="translate(227.683944, 334.044838)"><path style="stroke:none" d="M 17.984375 0 L 1.734375 0 L 20.046875 -55.46875 L 40.625 -55.46875 L 58.9375 0 L 42.6875 0 L 30.546875 -40.1875 L 30.109375 -40.1875 Z M 14.953125 -21.890625 L 45.5 -21.890625 L 45.5 -10.609375 L 14.953125 -10.609375 Z M 14.953125 -21.890625 "/></g></g><g style="fill:#ffffff;fill-opacity:1;"><g transform="translate(277.636562, 334.044838)"><path style="stroke:none" d="M 17.65625 0 L 1.296875 -55.46875 L 18.09375 -55.46875 L 25.671875 -21.34375 L 26.109375 -21.34375 L 35.09375 -55.46875 L 48.3125 -55.46875 L 57.3125 -21.234375 L 57.734375 -21.234375 L 65.328125 -55.46875 L 82.109375 -55.46875 L 65.75 0 L 51.34375 0 L 41.921875 -30.984375 L 41.484375 -30.984375 L 32.0625 0 Z M 17.65625 0 "/></g></g><g style="fill:#ffffff;fill-opacity:1;"><g transform="translate(139.345016, 398.335685)"><path style="stroke:none" d="M 33.46875 -38.125 C 33.332031 -39.9375 32.660156 -41.347656 31.453125 -42.359375 C 30.253906 -43.367188 28.4375 -43.875 26 -43.875 C 24.445312 -43.875 23.175781 -43.6875 22.1875 -43.3125 C 21.207031 -42.945312 20.484375 -42.445312 20.015625 -41.8125 C 19.546875 -41.1875 19.300781 -40.46875 19.28125 -39.65625 C 19.25 -38.976562 19.367188 -38.375 19.640625 -37.84375 C 19.921875 -37.3125 20.367188 -36.832031 20.984375 -36.40625 C 21.597656 -35.988281 22.382812 -35.609375 23.34375 -35.265625 C 24.300781 -34.921875 25.441406 -34.613281 26.765625 -34.34375 L 31.3125 -33.359375 C 34.375 -32.710938 37 -31.859375 39.1875 -30.796875 C 41.375 -29.734375 43.160156 -28.484375 44.546875 -27.046875 C 45.941406 -25.609375 46.96875 -23.992188 47.625 -22.203125 C 48.28125 -20.421875 48.617188 -18.472656 48.640625 -16.359375 C 48.617188 -12.710938 47.707031 -9.625 45.90625 -7.09375 C 44.101562 -4.5625 41.523438 -2.632812 38.171875 -1.3125 C 34.828125 0 30.804688 0.65625 26.109375 0.65625 C 21.285156 0.65625 17.082031 -0.0546875 13.5 -1.484375 C 9.914062 -2.910156 7.132812 -5.109375 5.15625 -8.078125 C 3.175781 -11.054688 2.179688 -14.863281 2.171875 -19.5 L 16.46875 -19.5 C 16.5625 -17.800781 16.984375 -16.375 17.734375 -15.21875 C 18.492188 -14.0625 19.5625 -13.1875 20.9375 -12.59375 C 22.320312 -12 23.972656 -11.703125 25.890625 -11.703125 C 27.492188 -11.703125 28.835938 -11.898438 29.921875 -12.296875 C 31.003906 -12.691406 31.828125 -13.238281 32.390625 -13.9375 C 32.953125 -14.644531 33.242188 -15.453125 33.265625 -16.359375 C 33.242188 -17.203125 32.96875 -17.941406 32.4375 -18.578125 C 31.90625 -19.222656 31.03125 -19.800781 29.8125 -20.3125 C 28.601562 -20.832031 26.972656 -21.320312 24.921875 -21.78125 L 19.390625 -22.96875 C 14.484375 -24.03125 10.613281 -25.8125 7.78125 -28.3125 C 4.957031 -30.8125 3.554688 -34.226562 3.578125 -38.5625 C 3.554688 -42.082031 4.5 -45.164062 6.40625 -47.8125 C 8.3125 -50.457031 10.957031 -52.519531 14.34375 -54 C 17.726562 -55.476562 21.613281 -56.21875 26 -56.21875 C 30.476562 -56.21875 34.347656 -55.46875 37.609375 -53.96875 C 40.878906 -52.476562 43.40625 -50.375 45.1875 -47.65625 C 46.96875 -44.9375 47.863281 -41.757812 47.875 -38.125 Z M 33.46875 -38.125 "/></g></g><g style="fill:#ffffff;fill-opacity:1;"><g transform="translate(185.942618, 398.335685)"><path style="stroke:none" d="M 3.578125 0 L 3.578125 -55.46875 L 43.546875 -55.46875 L 43.546875 -43.328125 L 18.640625 -43.328125 L 18.640625 -33.796875 L 41.484375 -33.796875 L 41.484375 -21.671875 L 18.640625 -21.671875 L 18.640625 -12.140625 L 43.4375 -12.140625 L 43.4375 0 Z M 3.578125 0 "/></g></g><g style="fill:#ffffff;fill-opacity:1;"><g transform="translate(229.182897, 398.335685)"><path style="stroke:none" d="M 17.984375 0 L 1.734375 0 L 20.046875 -55.46875 L 40.625 -55.46875 L 58.9375 0 L 42.6875 0 L 30.546875 -40.1875 L 30.109375 -40.1875 Z M 14.953125 -21.890625 L 45.5 -21.890625 L 45.5 -10.609375 L 14.953125 -10.609375 Z M 14.953125 -21.890625 "/></g></g><g style="fill:#ffffff;fill-opacity:1;"><g transform="translate(285.635886, 398.335685)"><path style="stroke:none" d="M 3.578125 0 L 3.578125 -55.46875 L 27.515625 -55.46875 C 31.628906 -55.46875 35.226562 -54.71875 38.3125 -53.21875 C 41.40625 -51.71875 43.804688 -49.554688 45.515625 -46.734375 C 47.234375 -43.921875 48.09375 -40.546875 48.09375 -36.609375 C 48.09375 -32.640625 47.210938 -29.289062 45.453125 -26.5625 C 43.691406 -23.84375 41.226562 -21.785156 38.0625 -20.390625 C 34.894531 -19.003906 31.195312 -18.3125 26.96875 -18.3125 L 12.671875 -18.3125 L 12.671875 -30.015625 L 23.9375 -30.015625 C 25.707031 -30.015625 27.21875 -30.234375 28.46875 -30.671875 C 29.726562 -31.109375 30.695312 -31.816406 31.375 -32.796875 C 32.050781 -33.773438 32.390625 -35.046875 32.390625 -36.609375 C 32.390625 -38.203125 32.050781 -39.5 31.375 -40.5 C 30.695312 -41.5 29.726562 -42.238281 28.46875 -42.71875 C 27.21875 -43.195312 25.707031 -43.4375 23.9375 -43.4375 L 18.640625 -43.4375 L 18.640625 0 Z M 36.078125 -25.453125 L 49.9375 0 L 33.578125 0 L 20.046875 -25.453125 Z M 36.078125 -25.453125 "/></g></g><g style="fill:#ffffff;fill-opacity:1;"><g transform="translate(332.341795, 398.335685)"><path style="stroke:none" d="M 55.359375 -34.671875 L 40.078125 -34.671875 C 39.972656 -35.929688 39.6875 -37.078125 39.21875 -38.109375 C 38.757812 -39.140625 38.128906 -40.023438 37.328125 -40.765625 C 36.523438 -41.515625 35.554688 -42.09375 34.421875 -42.5 C 33.285156 -42.90625 31.992188 -43.109375 30.546875 -43.109375 C 28.023438 -43.109375 25.890625 -42.492188 24.140625 -41.265625 C 22.398438 -40.046875 21.082031 -38.285156 20.1875 -35.984375 C 19.289062 -33.691406 18.84375 -30.941406 18.84375 -27.734375 C 18.84375 -24.335938 19.296875 -21.5 20.203125 -19.21875 C 21.117188 -16.9375 22.441406 -15.21875 24.171875 -14.0625 C 25.910156 -12.914062 28 -12.34375 30.4375 -12.34375 C 31.832031 -12.34375 33.078125 -12.519531 34.171875 -12.875 C 35.273438 -13.226562 36.234375 -13.738281 37.046875 -14.40625 C 37.859375 -15.070312 38.519531 -15.878906 39.03125 -16.828125 C 39.550781 -17.773438 39.898438 -18.847656 40.078125 -20.046875 L 55.359375 -19.9375 C 55.179688 -17.582031 54.519531 -15.191406 53.375 -12.765625 C 52.238281 -10.335938 50.628906 -8.097656 48.546875 -6.046875 C 46.460938 -4.003906 43.882812 -2.359375 40.8125 -1.109375 C 37.738281 0.140625 34.171875 0.765625 30.109375 0.765625 C 25.023438 0.765625 20.460938 -0.328125 16.421875 -2.515625 C 12.390625 -4.703125 9.203125 -7.914062 6.859375 -12.15625 C 4.523438 -16.40625 3.359375 -21.597656 3.359375 -27.734375 C 3.359375 -33.910156 4.550781 -39.113281 6.9375 -43.34375 C 9.320312 -47.582031 12.535156 -50.785156 16.578125 -52.953125 C 20.617188 -55.128906 25.128906 -56.21875 30.109375 -56.21875 C 33.617188 -56.21875 36.84375 -55.738281 39.78125 -54.78125 C 42.726562 -53.832031 45.3125 -52.441406 47.53125 -50.609375 C 49.75 -48.773438 51.535156 -46.519531 52.890625 -43.84375 C 54.242188 -41.175781 55.066406 -38.117188 55.359375 -34.671875 Z M 55.359375 -34.671875 "/></g></g><g style="fill:#ffffff;fill-opacity:1;"><g transform="translate(386.737086, 398.335685)"><path style="stroke:none" d="M 3.578125 0 L 3.578125 -55.46875 L 18.640625 -55.46875 L 18.640625 -33.796875 L 38.5625 -33.796875 L 38.5625 -55.46875 L 53.625 -55.46875 L 53.625 0 L 38.5625 0 L 38.5625 -21.671875 L 18.640625 -21.671875 L 18.640625 0 Z M 3.578125 0 "/></g></g></g></svg>