<svg xmlns="http://www.w3.org/2000/svg" xmlns:xlink="http://www.w3.org/1999/xlink" width="600" zoomAndPan="magnify" viewBox="0 0 450 129.000003" height="172" preserveAspectRatio="xMidYMid meet" version="1.2"><defs><clipPath id="20eef4b3d2"><path d="M 1.730469 0 L 448.269531 0 L 448.269531 127.578125 L 1.730469 127.578125 Z M 1.730469 0 "/></clipPath><clipPath id="d342e61a6c"><path d="M 439.339844 127.578125 L 10.660156 127.578125 C 5.730469 127.578125 1.730469 123.578125 1.730469 118.648438 L 1.730469 8.925781 C 1.730469 3.992188 5.730469 -0.00390625 10.660156 -0.00390625 L 439.339844 -0.00390625 C 444.269531 -0.00390625 448.269531 3.992188 448.269531 8.925781 L 448.269531 118.648438 C 448.269531 123.578125 444.269531 127.578125 439.339844 127.578125 Z M 439.339844 127.578125 "/></clipPath><clipPath id="ee06b5944a"><path d="M 330.859375 14.921875 L 428.605469 14.921875 L 428.605469 112.664062 L 330.859375 112.664062 Z M 330.859375 14.921875 "/></clipPath><clipPath id="d5fc9d0971"><path d="M 379.730469 14.921875 C 352.742188 14.921875 330.859375 36.800781 330.859375 63.792969 C 330.859375 90.78125 352.742188 112.664062 379.730469 112.664062 C 406.722656 112.664062 428.605469 90.78125 428.605469 63.792969 C 428.605469 36.800781 406.722656 14.921875 379.730469 14.921875 Z M 379.730469 14.921875 "/></clipPath><clipPath id="1231c5a3e7"><path d="M 349.882812 31.644531 L 413.664062 31.644531 L 413.664062 103.832031 L 349.882812 103.832031 Z M 349.882812 31.644531 "/></clipPath></defs><g id="277b4c5112"><g clip-rule="nonzero" clip-path="url(#20eef4b3d2)"><g clip-rule="nonzero" clip-path="url(#d342e61a6c)"><path style=" stroke:none;fill-rule:nonzero;fill:#000000;fill-opacity:1;" d="M 448.269531 127.578125 L 1.730469 127.578125 L 1.730469 -0.00390625 L 448.269531 -0.00390625 Z M 448.269531 127.578125 "/></g></g><g clip-rule="nonzero" clip-path="url(#ee06b5944a)"><g clip-rule="nonzero" clip-path="url(#d5fc9d0971)"><path style=" stroke:none;fill-rule:nonzero;fill:#6272a4;fill-opacity:1;" d="M 330.859375 14.921875 L 428.605469 14.921875 L 428.605469 112.664062 L 330.859375 112.664062 Z M 330.859375 14.921875 "/></g></g><g clip-rule="nonzero" clip-path="url(#1231c5a3e7)"><path style=" stroke:none;fill-rule:nonzero;fill:#ffffff;fill-opacity:1;" d="M 349.890625 99.832031 C 349.921875 100.070312 349.898438 99.953125 350 100.367188 C 350.070312 100.5 350.042969 100.445312 350.113281 100.605469 C 350.097656 100.632812 350.105469 100.597656 350.089844 100.8125 C 350.136719 101.050781 350.105469 100.945312 350.242188 101.273438 C 350.351562 101.523438 350.304688 101.457031 350.550781 101.804688 C 350.691406 101.921875 350.632812 101.878906 350.804688 101.992188 C 351.082031 102.074219 350.960938 102.03125 351.347656 102.191406 C 351.5 102.484375 351.453125 102.410156 351.5625 102.527344 C 351.785156 102.6875 351.71875 102.648438 351.867188 102.71875 C 352.0625 102.78125 352 102.742188 352.148438 102.898438 C 352.230469 102.960938 352.175781 102.921875 352.402344 103.058594 C 352.648438 103.15625 352.414062 103.109375 353.390625 103.183594 C 359.273438 103.269531 370.277344 103.300781 370.277344 103.300781 C 372.234375 103.257812 371.691406 103.320312 372.863281 103.15625 C 373.871094 103.101562 373.769531 103.101562 373.988281 103.019531 C 374.320312 102.769531 373.835938 103.085938 375.402344 102.359375 C 375.984375 102.15625 375.871094 102.207031 376.007812 102.121094 C 376.445312 101.96875 376.304688 102.015625 376.640625 101.910156 C 377.714844 101.699219 377.199219 101.714844 377.628906 101.703125 C 378.960938 101.292969 377.679688 101.59375 379.539062 101.171875 C 380.460938 100.816406 380.121094 100.898438 381.992188 100.496094 C 382.734375 100.410156 382.515625 100.449219 383.277344 100.277344 C 383.816406 100.15625 383.734375 100.253906 384.515625 100.09375 C 385.660156 99.917969 386.027344 99.796875 386.085938 99.785156 C 387.414062 99.453125 389.316406 98.8125 390.664062 98.25 C 391.359375 98.023438 391.390625 97.992188 391.757812 97.984375 C 392.335938 97.546875 391.953125 97.757812 392.429688 97.484375 C 395.238281 96.121094 395.285156 95.988281 396.667969 95.058594 C 398.75 93.707031 398.351562 94.074219 399.628906 92.957031 C 399.925781 92.550781 399.550781 93.050781 400.308594 92.257812 C 401.351562 91.25 401.199219 91.160156 402.0625 90.03125 C 402.648438 89.117188 402.539062 89.226562 402.628906 89.203125 C 402.910156 89.046875 402.851562 89.078125 403.003906 88.921875 C 403.148438 88.6875 403.125 88.734375 403.140625 88.6875 L 403.214844 88.617188 C 403.402344 88.683594 403.253906 88.632812 403.460938 88.664062 C 403.554688 89.070312 403.496094 88.796875 403.574219 89.039062 C 403.660156 89.15625 403.621094 89.128906 403.734375 89.171875 C 403.808594 89.382812 403.835938 89.421875 403.875 90.027344 C 404.355469 91.601562 404.289062 90.953125 404.644531 92.535156 C 404.792969 93.066406 404.734375 92.875 404.914062 93.378906 C 405.382812 95.125 405.371094 95.199219 405.414062 96.070312 C 405.351562 96.511719 405.378906 96.320312 405.292969 96.917969 C 405.136719 97.347656 405.199219 97.207031 405.023438 97.535156 C 404.777344 98.046875 404.875 97.859375 404.59375 98.359375 C 404.679688 98.300781 404.734375 98.214844 404.269531 98.816406 C 403.78125 99.507812 403.691406 99.460938 403.359375 100 C 403.132812 100.261719 403.1875 100.210938 403.09375 100.269531 C 402.765625 100.390625 402.875 100.371094 402.597656 100.359375 C 402.097656 100.34375 402.246094 100.324219 401.9375 100.421875 C 401.636719 100.605469 401.789062 100.488281 401.25 100.957031 C 401.03125 101.183594 401.074219 101.140625 401.03125 101.1875 C 400.628906 101.792969 400.535156 102.097656 400.472656 102.253906 C 400.460938 102.507812 400.4375 102.417969 400.625 102.9375 C 400.992188 103.390625 401.179688 103.277344 406.199219 103.296875 C 406.917969 103.289062 407.027344 103.3125 407.785156 103.175781 C 408.070312 103.144531 407.964844 103.164062 408.230469 103.09375 C 408.660156 102.886719 408.734375 102.738281 408.972656 102.390625 C 409.171875 102.007812 409.109375 102.160156 409.238281 101.710938 C 409.464844 100.558594 409.445312 100.648438 409.449219 100.625 C 409.878906 99.378906 409.699219 99.773438 410.222656 98.066406 C 410.570312 97.046875 410.5 97.214844 410.589844 97.085938 C 410.9375 96.414062 410.84375 96.609375 411.015625 96.199219 C 411.609375 94.980469 411.585938 95.039062 411.625 94.695312 C 411.609375 94.5 411.597656 94.570312 411.691406 94.371094 C 412.042969 93.601562 411.851562 92.828125 411.707031 92.179688 C 411.550781 91.449219 411.585938 91.742188 411.523438 90.761719 C 411.511719 90.328125 411.535156 89.839844 411.515625 89.445312 C 411.488281 88.316406 411.53125 88.207031 411.621094 87.714844 C 411.769531 86.519531 411.640625 87.003906 411.773438 86.476562 C 411.855469 86.167969 411.796875 86.328125 412.035156 85.730469 C 412.140625 85.320312 412.109375 85.496094 412.160156 84.949219 C 412.25 84.59375 412.300781 84.359375 412.445312 83.949219 C 412.738281 82.964844 412.570312 83.570312 412.859375 81.988281 C 413.21875 80.339844 412.882812 81.410156 413.289062 79.457031 C 413.878906 75.878906 413.785156 75.925781 413.832031 74.882812 C 413.878906 74.59375 413.835938 74.394531 413.828125 73.75 C 413.695312 72.683594 413.722656 72.867188 413.636719 72.613281 C 413.472656 72.078125 413.546875 72.292969 413.296875 71.664062 C 412.488281 69.269531 412.992188 70.660156 411.507812 68.46875 C 410.445312 67.082031 410.808594 67.5625 410.289062 66.640625 C 409.992188 65.914062 410.0625 66.148438 409.964844 65.609375 C 409.964844 64.851562 409.980469 65.269531 409.949219 64.703125 C 410.007812 64.238281 409.964844 64.425781 410.144531 63.882812 C 410.355469 63.296875 410.28125 63.46875 410.476562 63.105469 C 410.710938 62.53125 410.644531 62.710938 410.777344 62.300781 C 411.046875 61.6875 410.933594 61.800781 411.277344 60.789062 C 411.316406 60.441406 411.289062 60.597656 411.414062 60.078125 C 411.453125 59.730469 411.792969 57.875 411.792969 57.875 C 411.925781 57.484375 411.96875 57.027344 412.128906 55.6875 C 412.359375 53.503906 412.363281 54.085938 412.578125 52.640625 C 412.683594 51.695312 412.667969 51.949219 412.660156 51.5625 C 412.691406 51.144531 412.675781 51.289062 412.730469 50.925781 C 412.988281 49.007812 412.898438 48.433594 412.816406 46.878906 C 412.703125 45.492188 412.746094 47.011719 412.691406 44.566406 C 412.320312 42.214844 412.441406 42.925781 411.980469 41.3125 C 411.84375 40.867188 411.941406 41.066406 410.933594 38.972656 C 410.226562 37.6875 410.402344 37.976562 409.835938 37.148438 C 408.839844 35.796875 408.945312 35.921875 408.859375 35.886719 C 407.796875 34.722656 408.460938 35.449219 406.925781 34.003906 C 405.820312 33.171875 406.214844 33.375 404.59375 32.335938 C 403.035156 31.644531 403.132812 31.714844 402.492188 31.703125 C 402.132812 31.707031 402.132812 31.679688 401.726562 31.875 C 401.472656 31.996094 401.578125 31.933594 401.273438 32.167969 C 401 32.417969 401.105469 32.3125 400.808594 32.632812 C 400.59375 32.921875 400.648438 32.828125 400.550781 33.050781 C 400.515625 33.128906 400.527344 33.082031 400.503906 33.261719 C 400.570312 33.542969 400.539062 33.574219 401.148438 34.191406 C 401.457031 34.410156 401.265625 34.253906 401.992188 34.886719 C 402.300781 35.199219 402.179688 35.085938 402.519531 35.378906 C 403.921875 36.433594 403.136719 35.886719 403.882812 36.410156 C 404.234375 36.75 405.441406 37.792969 405.945312 38.671875 C 406.292969 39.558594 406.109375 39.199219 406.367188 39.640625 C 406.558594 39.929688 406.464844 39.753906 406.800781 40.433594 C 407.050781 40.902344 406.9375 40.632812 407.304688 41.667969 C 407.945312 44.207031 407.902344 44.488281 408.039062 46.667969 C 408.039062 47.183594 408.046875 47 408.011719 47.476562 C 408.007812 49.175781 407.90625 48.152344 407.941406 49.640625 C 407.894531 50.410156 407.796875 50.609375 407.664062 51.421875 C 407.578125 52.3125 407.503906 52.390625 407.503906 52.925781 C 407.476562 53.257812 407.347656 53.652344 407.371094 54.125 C 407.347656 54.324219 407.375 54.195312 407.246094 54.707031 C 407.183594 55.082031 407.199219 55.003906 407.171875 55.113281 C 406.5625 57.5625 406.941406 56.132812 406.59375 57.519531 C 406.050781 59.160156 406.132812 58.90625 405.734375 59.769531 C 405.035156 60.921875 405.332031 60.664062 404.632812 61.726562 C 404.449219 62.039062 404.539062 61.910156 404.234375 62.304688 C 403.796875 62.777344 403.972656 62.625 403.476562 62.988281 C 402.867188 63.292969 403.210938 63.144531 402.238281 63.488281 C 401.339844 63.789062 401.625 63.648438 400.820312 64.089844 C 400.601562 64.25 400.726562 64.179688 400.246094 64.390625 C 398.148438 65.546875 399.308594 64.804688 397.988281 65.578125 C 397.621094 65.78125 397.484375 65.828125 397.097656 66.101562 C 396.855469 66.238281 396.007812 66.714844 395.707031 66.933594 C 394.632812 67.785156 395.292969 67.160156 394.21875 68.15625 C 393.167969 69.472656 393.703125 68.65625 392.703125 70.039062 C 392.03125 70.949219 392.082031 70.875 391.789062 71.5 C 391.15625 72.601562 391.191406 72.765625 390.351562 74.574219 C 389.488281 76.75 389.652344 76.632812 389.246094 77.683594 C 389.066406 78.0625 389.132812 77.910156 388.957031 78.34375 C 388.636719 79.035156 388.390625 79.246094 387.910156 79.753906 C 387.472656 80.175781 387.488281 80.164062 387.488281 80.164062 C 386.902344 80.625 387.0625 80.511719 386.800781 80.664062 C 385.613281 81.484375 385.96875 81.335938 385.171875 81.59375 C 384.667969 81.726562 384.617188 81.777344 384.082031 81.625 C 383.425781 81.632812 383.15625 81.574219 382.429688 81.546875 C 382.03125 81.519531 382.164062 81.511719 381.855469 81.570312 C 381.507812 81.589844 381.699219 81.589844 380.96875 81.570312 C 380.554688 81.628906 380.714844 81.585938 380.273438 81.769531 C 379.941406 81.914062 380.054688 81.875 379.503906 82.054688 C 379.324219 82.066406 379.40625 82.082031 379.144531 81.972656 C 378.902344 81.871094 379 81.917969 378.722656 81.765625 C 378.179688 81.292969 378.28125 81.382812 378.105469 81.195312 C 378.121094 80.859375 378.214844 79.921875 377.941406 79.152344 C 377.773438 78.746094 377.859375 79.011719 377.59375 78.027344 C 377.445312 77.125 377.242188 76.453125 377 75.640625 C 376.804688 75.113281 376.890625 75.300781 376.628906 74.824219 C 376.371094 74.472656 376.464844 74.578125 376.21875 74.351562 C 375.765625 74.085938 375.710938 74.019531 375.328125 73.632812 C 375.117188 73.4375 375.175781 73.480469 375.070312 73.433594 C 375 73.414062 375.03125 73.410156 374.945312 73.453125 C 374.777344 73.546875 374.839844 73.496094 374.6875 73.6875 C 374.652344 73.738281 374.683594 73.671875 374.503906 74.054688 C 374.277344 74.65625 374.378906 74.601562 374.191406 75.453125 C 374.167969 75.808594 374.175781 75.746094 374.15625 75.800781 C 374.015625 76.035156 374.0625 75.964844 373.941406 76.109375 C 373.75 76.433594 373.921875 76.074219 373.4375 76.820312 C 373.304688 76.984375 373.425781 76.863281 372.898438 77.199219 C 372.4375 77.527344 372.476562 77.511719 371.785156 77.558594 C 371.199219 77.519531 371.75 77.609375 370.847656 77.449219 C 370.042969 77.363281 368.996094 77.234375 368.164062 77.3125 C 367.871094 77.320312 367.917969 77.320312 367.890625 77.324219 C 367.550781 77.417969 367.71875 77.351562 367.125 77.632812 C 365.820312 78.296875 366.980469 77.777344 365.609375 78.453125 C 364.84375 78.695312 365.28125 78.550781 363.355469 78.8125 C 362.625 78.886719 362.648438 78.90625 362.519531 78.972656 C 362.40625 79.058594 362.441406 79 362.386719 79.167969 C 362.222656 80.351562 362.28125 79.945312 362.304688 80.40625 C 362.152344 81.179688 362.175781 81.027344 362.171875 81.183594 C 362.195312 81.566406 362.203125 81.410156 362.179688 81.609375 C 362.179688 81.839844 362.167969 81.746094 362.242188 82.027344 C 362.347656 82.351562 362.320312 82.269531 362.367188 82.390625 C 362.273438 82.472656 362.308594 82.441406 362.203125 82.523438 C 362.078125 82.71875 362.121094 82.625 362.015625 82.9375 C 361.988281 83.257812 361.992188 83.125 362.019531 83.515625 C 362.109375 83.777344 362.078125 83.703125 362.164062 83.851562 C 362.511719 84.222656 362.355469 84.078125 362.867188 84.480469 C 363.882812 85.09375 364.394531 85.535156 365.386719 86.152344 C 365.933594 86.550781 365.808594 86.457031 365.992188 86.609375 C 366.550781 87.105469 366.355469 86.910156 366.851562 87.464844 C 368.035156 88.867188 367.175781 87.839844 367.238281 87.941406 C 367.28125 88.054688 367.238281 87.992188 367.433594 88.203125 C 367.761719 88.523438 367.675781 88.429688 367.835938 88.613281 C 368.167969 89.121094 368.09375 89.003906 368.191406 89.191406 C 368.792969 90.28125 368.390625 89.425781 368.847656 90.335938 C 368.914062 90.605469 368.90625 90.488281 368.863281 90.851562 C 368.824219 91.078125 368.847656 90.964844 368.75 91.363281 C 368.351562 92.386719 368.339844 92.234375 368.171875 92.648438 C 367.964844 93.054688 368.183594 92.742188 367.867188 93.328125 C 367.691406 93.792969 367.746094 93.621094 367.621094 94.078125 C 367.578125 94.65625 367.617188 94.019531 367.476562 95.109375 C 367.476562 95.109375 367.480469 95.097656 367.367188 95.472656 C 367.261719 95.792969 367.160156 96.105469 367.265625 95.789062 C 367.132812 96.054688 367.1875 95.964844 367.027344 96.1875 C 366.804688 96.386719 366.8125 96.394531 366.742188 96.410156 C 366.585938 96.457031 365.644531 96.734375 365.59375 96.75 C 364.886719 96.902344 365.226562 96.796875 364.402344 97.027344 C 363.78125 97.15625 363.214844 97.292969 362.050781 97.335938 C 360.640625 97.417969 360.324219 97.394531 359.875 97.386719 C 359.195312 97.511719 359.351562 97.472656 359.109375 97.554688 C 357.984375 97.980469 358.183594 97.628906 356.363281 97.648438 C 355.828125 97.472656 356.039062 97.554688 355.445312 97.273438 C 354.992188 97.003906 355.144531 97.128906 354.769531 96.734375 C 354.1875 95.945312 354.1875 95.945312 353.636719 95.488281 C 353.375 95.277344 353.464844 95.328125 353.246094 95.253906 C 353.027344 95.144531 353.0625 95.121094 352.652344 95.140625 C 352.359375 95.214844 352.457031 95.167969 352.222656 95.34375 C 352.046875 95.546875 352.085938 95.484375 352.023438 95.621094 C 351.929688 95.773438 351.953125 95.730469 351.917969 95.828125 C 351.796875 96.121094 351.820312 96.035156 351.8125 96.21875 C 351.78125 96.277344 351.792969 96.230469 351.75 96.464844 C 351.808594 96.863281 351.777344 96.71875 351.886719 97.097656 C 352.039062 97.582031 351.96875 97.402344 352.179688 97.824219 C 352.316406 97.996094 352.261719 97.9375 352.429688 98.070312 C 352.511719 98.132812 352.503906 98.125 352.503906 98.128906 C 352.492188 98.15625 352.503906 98.140625 352.457031 98.207031 C 352.425781 98.457031 352.429688 98.320312 352.449219 98.832031 C 352.480469 99.171875 352.457031 99.074219 352.546875 99.269531 C 352.542969 99.289062 352.578125 99.289062 352.308594 99.25 C 351.984375 99.226562 352.097656 99.242188 351.808594 99.183594 C 351.382812 99.148438 351.046875 99.113281 350.601562 99.238281 C 350.429688 99.292969 350.515625 99.25 350.222656 99.429688 C 349.972656 99.6875 350.027344 99.640625 349.953125 99.683594 Z M 349.890625 99.832031 "/></g><g style="fill:#ffffff;fill-opacity:1;"><g transform="translate(338.098674, 56.717601)"><path style="stroke:none" d="M 9.5625 -5.984375 L 6.921875 -5.984375 C 6.898438 -6.203125 6.847656 -6.398438 6.765625 -6.578125 C 6.691406 -6.753906 6.582031 -6.90625 6.4375 -7.03125 C 6.300781 -7.164062 6.132812 -7.269531 5.9375 -7.34375 C 5.75 -7.414062 5.53125 -7.453125 5.28125 -7.453125 C 4.84375 -7.453125 4.472656 -7.34375 4.171875 -7.125 C 3.867188 -6.914062 3.640625 -6.613281 3.484375 -6.21875 C 3.328125 -5.820312 3.25 -5.347656 3.25 -4.796875 C 3.25 -4.203125 3.328125 -3.707031 3.484375 -3.3125 C 3.648438 -2.925781 3.878906 -2.632812 4.171875 -2.4375 C 4.472656 -2.238281 4.832031 -2.140625 5.25 -2.140625 C 5.5 -2.140625 5.71875 -2.164062 5.90625 -2.21875 C 6.09375 -2.28125 6.253906 -2.367188 6.390625 -2.484375 C 6.535156 -2.597656 6.648438 -2.738281 6.734375 -2.90625 C 6.828125 -3.070312 6.890625 -3.257812 6.921875 -3.46875 L 9.5625 -3.4375 C 9.53125 -3.03125 9.414062 -2.617188 9.21875 -2.203125 C 9.019531 -1.785156 8.738281 -1.398438 8.375 -1.046875 C 8.019531 -0.691406 7.578125 -0.40625 7.046875 -0.1875 C 6.515625 0.0195312 5.898438 0.125 5.203125 0.125 C 4.316406 0.125 3.523438 -0.0625 2.828125 -0.4375 C 2.140625 -0.8125 1.59375 -1.363281 1.1875 -2.09375 C 0.78125 -2.832031 0.578125 -3.734375 0.578125 -4.796875 C 0.578125 -5.859375 0.78125 -6.753906 1.1875 -7.484375 C 1.601562 -8.210938 2.160156 -8.765625 2.859375 -9.140625 C 3.554688 -9.515625 4.335938 -9.703125 5.203125 -9.703125 C 5.804688 -9.703125 6.363281 -9.617188 6.875 -9.453125 C 7.382812 -9.296875 7.828125 -9.054688 8.203125 -8.734375 C 8.585938 -8.421875 8.894531 -8.03125 9.125 -7.5625 C 9.363281 -7.101562 9.507812 -6.578125 9.5625 -5.984375 Z M 9.5625 -5.984375 "/></g></g><g style="fill:#ffffff;fill-opacity:1;"><g transform="translate(347.493618, 56.717601)"><path style="stroke:none" d="M 0.625 0 L 0.625 -9.578125 L 3.21875 -9.578125 L 3.21875 -2.09375 L 7.09375 -2.09375 L 7.09375 0 Z M 0.625 0 "/></g></g><g style="fill:#ffffff;fill-opacity:1;"><g transform="translate(354.288522, 56.717601)"><path style="stroke:none" d="M 3.109375 0 L 0.296875 0 L 3.46875 -9.578125 L 7.015625 -9.578125 L 10.171875 0 L 7.375 0 L 5.28125 -6.9375 L 5.203125 -6.9375 Z M 2.578125 -3.78125 L 7.859375 -3.78125 L 7.859375 -1.828125 L 2.578125 -1.828125 Z M 2.578125 -3.78125 "/></g></g><g style="fill:#ffffff;fill-opacity:1;"><g transform="translate(362.916144, 56.717601)"><path style="stroke:none" d="M 3.046875 0 L 0.21875 -9.578125 L 3.125 -9.578125 L 4.4375 -3.6875 L 4.515625 -3.6875 L 6.0625 -9.578125 L 8.34375 -9.578125 L 9.890625 -3.671875 L 9.96875 -3.671875 L 11.28125 -9.578125 L 14.1875 -9.578125 L 11.359375 0 L 8.875 0 L 7.234375 -5.34375 L 7.171875 -5.34375 L 5.53125 0 Z M 3.046875 0 "/></g></g><g style="fill:#ffffff;fill-opacity:1;"><g transform="translate(339.03097, 67.82166)"><path style="stroke:none" d="M 5.78125 -6.59375 C 5.757812 -6.894531 5.644531 -7.132812 5.4375 -7.3125 C 5.226562 -7.488281 4.910156 -7.578125 4.484375 -7.578125 C 4.222656 -7.578125 4.003906 -7.546875 3.828125 -7.484375 C 3.660156 -7.421875 3.535156 -7.332031 3.453125 -7.21875 C 3.367188 -7.113281 3.328125 -6.988281 3.328125 -6.84375 C 3.328125 -6.726562 3.347656 -6.625 3.390625 -6.53125 C 3.441406 -6.445312 3.519531 -6.363281 3.625 -6.28125 C 3.726562 -6.207031 3.863281 -6.140625 4.03125 -6.078125 C 4.195312 -6.023438 4.394531 -5.976562 4.625 -5.9375 L 5.40625 -5.765625 C 5.9375 -5.648438 6.390625 -5.5 6.765625 -5.3125 C 7.140625 -5.132812 7.445312 -4.921875 7.6875 -4.671875 C 7.9375 -4.421875 8.113281 -4.140625 8.21875 -3.828125 C 8.332031 -3.523438 8.394531 -3.191406 8.40625 -2.828125 C 8.394531 -2.191406 8.234375 -1.65625 7.921875 -1.21875 C 7.609375 -0.789062 7.160156 -0.460938 6.578125 -0.234375 C 6.003906 -0.00390625 5.316406 0.109375 4.515625 0.109375 C 3.679688 0.109375 2.953125 -0.0078125 2.328125 -0.25 C 1.710938 -0.5 1.234375 -0.878906 0.890625 -1.390625 C 0.546875 -1.910156 0.375 -2.570312 0.375 -3.375 L 2.84375 -3.375 C 2.863281 -3.070312 2.9375 -2.820312 3.0625 -2.625 C 3.195312 -2.425781 3.378906 -2.273438 3.609375 -2.171875 C 3.847656 -2.066406 4.132812 -2.015625 4.46875 -2.015625 C 4.75 -2.015625 4.984375 -2.046875 5.171875 -2.109375 C 5.359375 -2.179688 5.5 -2.28125 5.59375 -2.40625 C 5.6875 -2.53125 5.738281 -2.671875 5.75 -2.828125 C 5.738281 -2.972656 5.6875 -3.097656 5.59375 -3.203125 C 5.507812 -3.316406 5.363281 -3.414062 5.15625 -3.5 C 4.945312 -3.59375 4.660156 -3.679688 4.296875 -3.765625 L 3.34375 -3.96875 C 2.5 -4.15625 1.832031 -4.460938 1.34375 -4.890625 C 0.851562 -5.316406 0.613281 -5.90625 0.625 -6.65625 C 0.613281 -7.269531 0.769531 -7.800781 1.09375 -8.25 C 1.425781 -8.707031 1.882812 -9.0625 2.46875 -9.3125 C 3.0625 -9.570312 3.734375 -9.703125 4.484375 -9.703125 C 5.265625 -9.703125 5.9375 -9.570312 6.5 -9.3125 C 7.0625 -9.0625 7.492188 -8.703125 7.796875 -8.234375 C 8.109375 -7.765625 8.265625 -7.21875 8.265625 -6.59375 Z M 5.78125 -6.59375 "/></g></g><g style="fill:#ffffff;fill-opacity:1;"><g transform="translate(347.079127, 67.82166)"><path style="stroke:none" d="M 0.625 0 L 0.625 -9.578125 L 7.515625 -9.578125 L 7.515625 -7.484375 L 3.21875 -7.484375 L 3.21875 -5.84375 L 7.171875 -5.84375 L 7.171875 -3.734375 L 3.21875 -3.734375 L 3.21875 -2.09375 L 7.5 -2.09375 L 7.5 0 Z M 0.625 0 "/></g></g><g style="fill:#ffffff;fill-opacity:1;"><g transform="translate(354.547421, 67.82166)"><path style="stroke:none" d="M 3.109375 0 L 0.296875 0 L 3.46875 -9.578125 L 7.015625 -9.578125 L 10.171875 0 L 7.375 0 L 5.28125 -6.9375 L 5.203125 -6.9375 Z M 2.578125 -3.78125 L 7.859375 -3.78125 L 7.859375 -1.828125 L 2.578125 -1.828125 Z M 2.578125 -3.78125 "/></g></g><g style="fill:#ffffff;fill-opacity:1;"><g transform="translate(364.297763, 67.82166)"><path style="stroke:none" d="M 0.625 0 L 0.625 -9.578125 L 4.75 -9.578125 C 5.457031 -9.578125 6.078125 -9.445312 6.609375 -9.1875 C 7.148438 -8.925781 7.566406 -8.550781 7.859375 -8.0625 C 8.160156 -7.582031 8.3125 -7.003906 8.3125 -6.328125 C 8.3125 -5.640625 8.15625 -5.054688 7.84375 -4.578125 C 7.539062 -4.109375 7.113281 -3.753906 6.5625 -3.515625 C 6.019531 -3.273438 5.382812 -3.15625 4.65625 -3.15625 L 2.1875 -3.15625 L 2.1875 -5.1875 L 4.140625 -5.1875 C 4.441406 -5.1875 4.703125 -5.222656 4.921875 -5.296875 C 5.140625 -5.367188 5.304688 -5.488281 5.421875 -5.65625 C 5.535156 -5.832031 5.59375 -6.054688 5.59375 -6.328125 C 5.59375 -6.597656 5.535156 -6.816406 5.421875 -6.984375 C 5.304688 -7.160156 5.140625 -7.289062 4.921875 -7.375 C 4.703125 -7.457031 4.441406 -7.5 4.140625 -7.5 L 3.21875 -7.5 L 3.21875 0 Z M 6.234375 -4.390625 L 8.625 0 L 5.796875 0 L 3.46875 -4.390625 Z M 6.234375 -4.390625 "/></g></g><g style="fill:#ffffff;fill-opacity:1;"><g transform="translate(372.364626, 67.82166)"><path style="stroke:none" d="M 9.5625 -5.984375 L 6.921875 -5.984375 C 6.898438 -6.203125 6.847656 -6.398438 6.765625 -6.578125 C 6.691406 -6.753906 6.582031 -6.90625 6.4375 -7.03125 C 6.300781 -7.164062 6.132812 -7.269531 5.9375 -7.34375 C 5.75 -7.414062 5.53125 -7.453125 5.28125 -7.453125 C 4.84375 -7.453125 4.472656 -7.34375 4.171875 -7.125 C 3.867188 -6.914062 3.640625 -6.613281 3.484375 -6.21875 C 3.328125 -5.820312 3.25 -5.347656 3.25 -4.796875 C 3.25 -4.203125 3.328125 -3.707031 3.484375 -3.3125 C 3.648438 -2.925781 3.878906 -2.632812 4.171875 -2.4375 C 4.472656 -2.238281 4.832031 -2.140625 5.25 -2.140625 C 5.5 -2.140625 5.71875 -2.164062 5.90625 -2.21875 C 6.09375 -2.28125 6.253906 -2.367188 6.390625 -2.484375 C 6.535156 -2.597656 6.648438 -2.738281 6.734375 -2.90625 C 6.828125 -3.070312 6.890625 -3.257812 6.921875 -3.46875 L 9.5625 -3.4375 C 9.53125 -3.03125 9.414062 -2.617188 9.21875 -2.203125 C 9.019531 -1.785156 8.738281 -1.398438 8.375 -1.046875 C 8.019531 -0.691406 7.578125 -0.40625 7.046875 -0.1875 C 6.515625 0.0195312 5.898438 0.125 5.203125 0.125 C 4.316406 0.125 3.523438 -0.0625 2.828125 -0.4375 C 2.140625 -0.8125 1.59375 -1.363281 1.1875 -2.09375 C 0.78125 -2.832031 0.578125 -3.734375 0.578125 -4.796875 C 0.578125 -5.859375 0.78125 -6.753906 1.1875 -7.484375 C 1.601562 -8.210938 2.160156 -8.765625 2.859375 -9.140625 C 3.554688 -9.515625 4.335938 -9.703125 5.203125 -9.703125 C 5.804688 -9.703125 6.363281 -9.617188 6.875 -9.453125 C 7.382812 -9.296875 7.828125 -9.054688 8.203125 -8.734375 C 8.585938 -8.421875 8.894531 -8.03125 9.125 -7.5625 C 9.363281 -7.101562 9.507812 -6.578125 9.5625 -5.984375 Z M 9.5625 -5.984375 "/></g></g><g style="fill:#ffffff;fill-opacity:1;"><g transform="translate(381.75957, 67.82166)"><path style="stroke:none" d="M 0.625 0 L 0.625 -9.578125 L 3.21875 -9.578125 L 3.21875 -5.84375 L 6.65625 -5.84375 L 6.65625 -9.578125 L 9.265625 -9.578125 L 9.265625 0 L 6.65625 0 L 6.65625 -3.734375 L 3.21875 -3.734375 L 3.21875 0 Z M 0.625 0 "/></g></g><g style="fill:#ffffff;fill-opacity:1;"><g transform="translate(17.312138, 58.974972)"><path style="stroke:none" d="M 2.9375 -10.0625 L 5.375 -10.0625 L 8.09375 0 L 6.109375 0 L 5.484375 -2.484375 L 2.8125 -2.484375 L 2.21875 0 L 0.21875 0 Z M 5.09375 -4.125 L 4.15625 -8.25 L 3.21875 -4.125 Z M 5.09375 -4.125 "/></g></g><g style="fill:#ffffff;fill-opacity:1;"><g transform="translate(25.326786, 58.974972)"><path style="stroke:none" d=""/></g></g><g style="fill:#ffffff;fill-opacity:1;"><g transform="translate(33.341435, 58.974972)"><path style="stroke:none" d="M 1.125 -10.0625 L 3.84375 -10.0625 C 5.226562 -10.0625 6.234375 -9.816406 6.859375 -9.328125 C 7.460938 -8.835938 7.765625 -8.035156 7.765625 -6.921875 C 7.765625 -5.804688 7.460938 -5.003906 6.859375 -4.515625 C 6.234375 -4.015625 5.226562 -3.765625 3.84375 -3.765625 L 3.109375 -3.765625 L 3.109375 0 L 1.125 0 Z M 3.921875 -5.4375 C 4.578125 -5.4375 5.035156 -5.546875 5.296875 -5.765625 C 5.554688 -5.992188 5.6875 -6.378906 5.6875 -6.921875 C 5.6875 -7.460938 5.554688 -7.84375 5.296875 -8.0625 C 5.035156 -8.28125 4.578125 -8.390625 3.921875 -8.390625 L 3.109375 -8.390625 L 3.109375 -5.4375 Z M 3.921875 -5.4375 "/></g></g><g style="fill:#ffffff;fill-opacity:1;"><g transform="translate(41.356083, 58.974972)"><path style="stroke:none" d="M 0.890625 -10.0625 L 3.765625 -10.0625 C 5.066406 -10.0625 6 -9.832031 6.5625 -9.375 C 6.84375 -9.144531 7.050781 -8.84375 7.1875 -8.46875 C 7.332031 -8.09375 7.40625 -7.660156 7.40625 -7.171875 C 7.40625 -6.796875 7.363281 -6.472656 7.28125 -6.203125 C 7.195312 -5.929688 7.070312 -5.691406 6.90625 -5.484375 C 6.738281 -5.285156 6.535156 -5.125 6.296875 -5 C 6.066406 -4.882812 5.78125 -4.800781 5.4375 -4.75 C 5.65625 -4.707031 5.832031 -4.617188 5.96875 -4.484375 C 6.03125 -4.410156 6.101562 -4.300781 6.1875 -4.15625 C 6.28125 -4.019531 6.382812 -3.84375 6.5 -3.625 L 8.3125 0 L 6.125 0 L 4.921875 -2.546875 L 4.78125 -2.84375 C 4.582031 -3.226562 4.382812 -3.515625 4.1875 -3.703125 C 3.988281 -3.890625 3.765625 -3.984375 3.515625 -3.984375 L 2.890625 -3.984375 L 2.890625 0 L 0.890625 0 Z M 3.828125 -5.65625 C 4.367188 -5.65625 4.757812 -5.757812 5 -5.96875 C 5.101562 -6.070312 5.1875 -6.207031 5.25 -6.375 C 5.3125 -6.539062 5.34375 -6.757812 5.34375 -7.03125 C 5.34375 -7.519531 5.226562 -7.867188 5 -8.078125 C 4.757812 -8.285156 4.367188 -8.390625 3.828125 -8.390625 L 2.890625 -8.390625 L 2.890625 -5.65625 Z M 3.828125 -5.65625 "/></g></g><g style="fill:#ffffff;fill-opacity:1;"><g transform="translate(49.370732, 58.974972)"><path style="stroke:none" d="M 1.15625 -1.75 L 3.15625 -1.75 L 3.15625 -8.3125 L 1.15625 -8.3125 L 1.15625 -10.0625 L 7.15625 -10.0625 L 7.15625 -8.3125 L 5.15625 -8.3125 L 5.15625 -1.75 L 7.15625 -1.75 L 7.15625 0 L 1.15625 0 Z M 1.15625 -1.75 "/></g></g><g style="fill:#ffffff;fill-opacity:1;"><g transform="translate(57.38538, 58.974972)"><path style="stroke:none" d="M 0.390625 -10.0625 L 2.390625 -10.0625 L 4.15625 -1.65625 L 5.921875 -10.0625 L 7.9375 -10.0625 L 5.53125 0 L 2.78125 0 Z M 0.390625 -10.0625 "/></g></g><g style="fill:#ffffff;fill-opacity:1;"><g transform="translate(65.400029, 58.974972)"><path style="stroke:none" d="M 2.9375 -10.0625 L 5.375 -10.0625 L 8.09375 0 L 6.109375 0 L 5.484375 -2.484375 L 2.8125 -2.484375 L 2.21875 0 L 0.21875 0 Z M 5.09375 -4.125 L 4.15625 -8.25 L 3.21875 -4.125 Z M 5.09375 -4.125 "/></g></g><g style="fill:#ffffff;fill-opacity:1;"><g transform="translate(73.414677, 58.974972)"><path style="stroke:none" d="M 5.125 0.203125 C 3.78125 0.203125 2.742188 -0.242188 2.015625 -1.140625 C 1.304688 -2.046875 0.953125 -3.34375 0.953125 -5.03125 C 0.953125 -6.71875 1.304688 -8.007812 2.015625 -8.90625 C 2.742188 -9.800781 3.78125 -10.25 5.125 -10.25 C 5.507812 -10.25 5.878906 -10.207031 6.234375 -10.125 C 6.585938 -10.050781 6.914062 -9.929688 7.21875 -9.765625 L 7.21875 -7.546875 C 7.007812 -7.742188 6.828125 -7.894531 6.671875 -8 C 6.515625 -8.101562 6.363281 -8.1875 6.21875 -8.25 C 6.050781 -8.320312 5.882812 -8.375 5.71875 -8.40625 C 5.550781 -8.445312 5.382812 -8.46875 5.21875 -8.46875 C 4.5 -8.46875 3.953125 -8.175781 3.578125 -7.59375 C 3.203125 -7.007812 3.015625 -6.15625 3.015625 -5.03125 C 3.015625 -3.894531 3.203125 -3.039062 3.578125 -2.46875 C 3.953125 -1.882812 4.5 -1.59375 5.21875 -1.59375 C 5.5625 -1.59375 5.894531 -1.664062 6.21875 -1.8125 C 6.382812 -1.882812 6.539062 -1.972656 6.6875 -2.078125 C 6.84375 -2.179688 7.019531 -2.320312 7.21875 -2.5 L 7.21875 -0.296875 C 6.90625 -0.128906 6.570312 -0.00390625 6.21875 0.078125 C 5.875 0.160156 5.507812 0.203125 5.125 0.203125 Z M 5.125 0.203125 "/></g></g><g style="fill:#ffffff;fill-opacity:1;"><g transform="translate(81.429326, 58.974972)"><path style="stroke:none" d="M 3.15625 -3.96875 L 0.046875 -10.0625 L 2.203125 -10.0625 L 4.15625 -6.015625 L 6.109375 -10.0625 L 8.265625 -10.0625 L 5.15625 -3.96875 L 5.15625 0 L 3.15625 0 Z M 3.15625 -3.96875 "/></g></g><g style="fill:#ffffff;fill-opacity:1;"><g transform="translate(89.443974, 58.974972)"><path style="stroke:none" d="M 1.484375 -5.03125 L 6.828125 -5.03125 L 6.828125 -3.0625 L 1.484375 -3.0625 Z M 1.484375 -5.03125 "/></g></g><g style="fill:#ffffff;fill-opacity:1;"><g transform="translate(97.458623, 58.974972)"><path style="stroke:none" d="M 4.15625 0.203125 C 3.550781 0.203125 3.03125 0.0859375 2.59375 -0.140625 C 2.15625 -0.367188 1.796875 -0.695312 1.515625 -1.125 C 0.921875 -2 0.625 -3.300781 0.625 -5.03125 C 0.625 -6.738281 0.921875 -8.039062 1.515625 -8.9375 C 1.828125 -9.394531 2.207031 -9.726562 2.65625 -9.9375 C 3.101562 -10.144531 3.601562 -10.25 4.15625 -10.25 C 5.320312 -10.25 6.207031 -9.804688 6.8125 -8.921875 C 7.40625 -8.046875 7.703125 -6.75 7.703125 -5.03125 C 7.703125 -3.3125 7.40625 -2.007812 6.8125 -1.125 C 6.519531 -0.695312 6.15625 -0.367188 5.71875 -0.140625 C 5.28125 0.0859375 4.757812 0.203125 4.15625 0.203125 Z M 4.15625 -1.59375 C 4.664062 -1.59375 5.039062 -1.863281 5.28125 -2.40625 C 5.507812 -2.9375 5.625 -3.8125 5.625 -5.03125 C 5.625 -6.25 5.507812 -7.117188 5.28125 -7.640625 C 5.039062 -8.191406 4.664062 -8.46875 4.15625 -8.46875 C 3.65625 -8.46875 3.285156 -8.191406 3.046875 -7.640625 C 2.804688 -7.117188 2.6875 -6.25 2.6875 -5.03125 C 2.6875 -3.8125 2.804688 -2.9375 3.046875 -2.40625 C 3.273438 -1.863281 3.644531 -1.59375 4.15625 -1.59375 Z M 4.15625 -1.59375 "/></g></g><g style="fill:#ffffff;fill-opacity:1;"><g transform="translate(105.473271, 58.974972)"><path style="stroke:none" d="M 0.890625 -10.0625 L 3.765625 -10.0625 C 5.066406 -10.0625 6 -9.832031 6.5625 -9.375 C 6.84375 -9.144531 7.050781 -8.84375 7.1875 -8.46875 C 7.332031 -8.09375 7.40625 -7.660156 7.40625 -7.171875 C 7.40625 -6.796875 7.363281 -6.472656 7.28125 -6.203125 C 7.195312 -5.929688 7.070312 -5.691406 6.90625 -5.484375 C 6.738281 -5.285156 6.535156 -5.125 6.296875 -5 C 6.066406 -4.882812 5.78125 -4.800781 5.4375 -4.75 C 5.65625 -4.707031 5.832031 -4.617188 5.96875 -4.484375 C 6.03125 -4.410156 6.101562 -4.300781 6.1875 -4.15625 C 6.28125 -4.019531 6.382812 -3.84375 6.5 -3.625 L 8.3125 0 L 6.125 0 L 4.921875 -2.546875 L 4.78125 -2.84375 C 4.582031 -3.226562 4.382812 -3.515625 4.1875 -3.703125 C 3.988281 -3.890625 3.765625 -3.984375 3.515625 -3.984375 L 2.890625 -3.984375 L 2.890625 0 L 0.890625 0 Z M 3.828125 -5.65625 C 4.367188 -5.65625 4.757812 -5.757812 5 -5.96875 C 5.101562 -6.070312 5.1875 -6.207031 5.25 -6.375 C 5.3125 -6.539062 5.34375 -6.757812 5.34375 -7.03125 C 5.34375 -7.519531 5.226562 -7.867188 5 -8.078125 C 4.757812 -8.285156 4.367188 -8.390625 3.828125 -8.390625 L 2.890625 -8.390625 L 2.890625 -5.65625 Z M 3.828125 -5.65625 "/></g></g><g style="fill:#ffffff;fill-opacity:1;"><g transform="translate(113.48792, 58.974972)"><path style="stroke:none" d="M 1.15625 -1.75 L 3.15625 -1.75 L 3.15625 -8.3125 L 1.15625 -8.3125 L 1.15625 -10.0625 L 7.15625 -10.0625 L 7.15625 -8.3125 L 5.15625 -8.3125 L 5.15625 -1.75 L 7.15625 -1.75 L 7.15625 0 L 1.15625 0 Z M 1.15625 -1.75 "/></g></g><g style="fill:#ffffff;fill-opacity:1;"><g transform="translate(121.502568, 58.974972)"><path style="stroke:none" d="M 1.140625 -10.0625 L 7.40625 -10.0625 L 7.40625 -8.3125 L 3.125 -8.3125 L 3.125 -6.140625 L 7 -6.140625 L 7 -4.390625 L 3.125 -4.390625 L 3.125 -1.75 L 7.40625 -1.75 L 7.40625 0 L 1.140625 0 Z M 1.140625 -10.0625 "/></g></g><g style="fill:#ffffff;fill-opacity:1;"><g transform="translate(129.517217, 58.974972)"><path style="stroke:none" d="M 0.796875 -10.0625 L 2.9375 -10.0625 L 5.75 -2.75 L 5.75 -10.0625 L 7.5 -10.0625 L 7.5 0 L 5.375 0 L 2.5625 -7.3125 L 2.5625 0 L 0.796875 0 Z M 0.796875 -10.0625 "/></g></g><g style="fill:#ffffff;fill-opacity:1;"><g transform="translate(137.531865, 58.974972)"><path style="stroke:none" d="M 3.15625 -8.328125 L 0.609375 -8.328125 L 0.609375 -10.0625 L 7.703125 -10.0625 L 7.703125 -8.328125 L 5.15625 -8.328125 L 5.15625 0 L 3.15625 0 Z M 3.15625 -8.328125 "/></g></g><g style="fill:#ffffff;fill-opacity:1;"><g transform="translate(145.546514, 58.974972)"><path style="stroke:none" d="M 1.140625 -10.0625 L 7.40625 -10.0625 L 7.40625 -8.3125 L 3.125 -8.3125 L 3.125 -6.140625 L 7 -6.140625 L 7 -4.390625 L 3.125 -4.390625 L 3.125 -1.75 L 7.40625 -1.75 L 7.40625 0 L 1.140625 0 Z M 1.140625 -10.0625 "/></g></g><g style="fill:#ffffff;fill-opacity:1;"><g transform="translate(153.561162, 58.974972)"><path style="stroke:none" d="M 0.921875 -10.0625 L 3.0625 -10.0625 C 4.707031 -10.0625 5.890625 -9.671875 6.609375 -8.890625 C 6.960938 -8.503906 7.234375 -7.992188 7.421875 -7.359375 C 7.609375 -6.722656 7.703125 -5.945312 7.703125 -5.03125 C 7.703125 -3.257812 7.335938 -1.976562 6.609375 -1.1875 C 5.890625 -0.394531 4.707031 0 3.0625 0 L 0.921875 0 Z M 3.453125 -1.796875 C 4.234375 -1.796875 4.789062 -2.039062 5.125 -2.53125 C 5.457031 -3.03125 5.625 -3.867188 5.625 -5.046875 C 5.625 -6.210938 5.457031 -7.046875 5.125 -7.546875 C 4.800781 -8.035156 4.242188 -8.28125 3.453125 -8.28125 L 2.90625 -8.28125 L 2.90625 -1.796875 Z M 3.453125 -1.796875 "/></g></g><g style="fill:#ffffff;fill-opacity:1;"><g transform="translate(161.575811, 58.974972)"><path style="stroke:none" d=""/></g></g><g style="fill:#ffffff;fill-opacity:1;"><g transform="translate(169.590459, 58.974972)"><path style="stroke:none" d="M 3.921875 0.203125 C 3.648438 0.203125 3.382812 0.1875 3.125 0.15625 C 2.875 0.125 2.625 0.078125 2.375 0.015625 C 1.84375 -0.0976562 1.351562 -0.273438 0.90625 -0.515625 L 0.90625 -2.5625 C 1.445312 -2.1875 1.960938 -1.910156 2.453125 -1.734375 C 2.953125 -1.546875 3.4375 -1.453125 3.90625 -1.453125 C 4.40625 -1.453125 4.789062 -1.5625 5.0625 -1.78125 C 5.332031 -2.007812 5.46875 -2.320312 5.46875 -2.71875 C 5.46875 -3.03125 5.378906 -3.296875 5.203125 -3.515625 C 5.109375 -3.628906 4.992188 -3.726562 4.859375 -3.8125 C 4.722656 -3.90625 4.578125 -3.984375 4.421875 -4.046875 L 3.4375 -4.421875 C 2.914062 -4.617188 2.488281 -4.816406 2.15625 -5.015625 C 1.832031 -5.210938 1.582031 -5.414062 1.40625 -5.625 C 1.050781 -6.03125 0.875 -6.59375 0.875 -7.3125 C 0.875 -8.226562 1.164062 -8.945312 1.75 -9.46875 C 2.332031 -9.988281 3.128906 -10.25 4.140625 -10.25 C 4.640625 -10.25 5.109375 -10.195312 5.546875 -10.09375 C 5.984375 -10 6.441406 -9.84375 6.921875 -9.625 L 6.921875 -7.6875 C 6.054688 -8.300781 5.179688 -8.609375 4.296875 -8.609375 C 3.816406 -8.609375 3.453125 -8.507812 3.203125 -8.3125 C 2.941406 -8.125 2.8125 -7.851562 2.8125 -7.5 C 2.8125 -7.207031 2.910156 -6.972656 3.109375 -6.796875 C 3.191406 -6.703125 3.320312 -6.609375 3.5 -6.515625 C 3.675781 -6.421875 3.929688 -6.3125 4.265625 -6.1875 L 5.125 -5.875 C 5.9375 -5.570312 6.53125 -5.175781 6.90625 -4.6875 C 7.289062 -4.195312 7.484375 -3.566406 7.484375 -2.796875 C 7.484375 -1.804688 7.179688 -1.0625 6.578125 -0.5625 C 5.972656 -0.0507812 5.085938 0.203125 3.921875 0.203125 Z M 3.921875 0.203125 "/></g></g><g style="fill:#ffffff;fill-opacity:1;"><g transform="translate(177.605108, 58.974972)"><path style="stroke:none" d="M 1.140625 -10.0625 L 7.40625 -10.0625 L 7.40625 -8.3125 L 3.125 -8.3125 L 3.125 -6.140625 L 7 -6.140625 L 7 -4.390625 L 3.125 -4.390625 L 3.125 -1.75 L 7.40625 -1.75 L 7.40625 0 L 1.140625 0 Z M 1.140625 -10.0625 "/></g></g><g style="fill:#ffffff;fill-opacity:1;"><g transform="translate(185.619756, 58.974972)"><path style="stroke:none" d="M 2.9375 -10.0625 L 5.375 -10.0625 L 8.09375 0 L 6.109375 0 L 5.484375 -2.484375 L 2.8125 -2.484375 L 2.21875 0 L 0.21875 0 Z M 5.09375 -4.125 L 4.15625 -8.25 L 3.21875 -4.125 Z M 5.09375 -4.125 "/></g></g><g style="fill:#ffffff;fill-opacity:1;"><g transform="translate(193.634405, 58.974972)"><path style="stroke:none" d="M 0.890625 -10.0625 L 3.765625 -10.0625 C 5.066406 -10.0625 6 -9.832031 6.5625 -9.375 C 6.84375 -9.144531 7.050781 -8.84375 7.1875 -8.46875 C 7.332031 -8.09375 7.40625 -7.660156 7.40625 -7.171875 C 7.40625 -6.796875 7.363281 -6.472656 7.28125 -6.203125 C 7.195312 -5.929688 7.070312 -5.691406 6.90625 -5.484375 C 6.738281 -5.285156 6.535156 -5.125 6.296875 -5 C 6.066406 -4.882812 5.78125 -4.800781 5.4375 -4.75 C 5.65625 -4.707031 5.832031 -4.617188 5.96875 -4.484375 C 6.03125 -4.410156 6.101562 -4.300781 6.1875 -4.15625 C 6.28125 -4.019531 6.382812 -3.84375 6.5 -3.625 L 8.3125 0 L 6.125 0 L 4.921875 -2.546875 L 4.78125 -2.84375 C 4.582031 -3.226562 4.382812 -3.515625 4.1875 -3.703125 C 3.988281 -3.890625 3.765625 -3.984375 3.515625 -3.984375 L 2.890625 -3.984375 L 2.890625 0 L 0.890625 0 Z M 3.828125 -5.65625 C 4.367188 -5.65625 4.757812 -5.757812 5 -5.96875 C 5.101562 -6.070312 5.1875 -6.207031 5.25 -6.375 C 5.3125 -6.539062 5.34375 -6.757812 5.34375 -7.03125 C 5.34375 -7.519531 5.226562 -7.867188 5 -8.078125 C 4.757812 -8.285156 4.367188 -8.390625 3.828125 -8.390625 L 2.890625 -8.390625 L 2.890625 -5.65625 Z M 3.828125 -5.65625 "/></g></g><g style="fill:#ffffff;fill-opacity:1;"><g transform="translate(201.649053, 58.974972)"><path style="stroke:none" d="M 5.125 0.203125 C 3.78125 0.203125 2.742188 -0.242188 2.015625 -1.140625 C 1.304688 -2.046875 0.953125 -3.34375 0.953125 -5.03125 C 0.953125 -6.71875 1.304688 -8.007812 2.015625 -8.90625 C 2.742188 -9.800781 3.78125 -10.25 5.125 -10.25 C 5.507812 -10.25 5.878906 -10.207031 6.234375 -10.125 C 6.585938 -10.050781 6.914062 -9.929688 7.21875 -9.765625 L 7.21875 -7.546875 C 7.007812 -7.742188 6.828125 -7.894531 6.671875 -8 C 6.515625 -8.101562 6.363281 -8.1875 6.21875 -8.25 C 6.050781 -8.320312 5.882812 -8.375 5.71875 -8.40625 C 5.550781 -8.445312 5.382812 -8.46875 5.21875 -8.46875 C 4.5 -8.46875 3.953125 -8.175781 3.578125 -7.59375 C 3.203125 -7.007812 3.015625 -6.15625 3.015625 -5.03125 C 3.015625 -3.894531 3.203125 -3.039062 3.578125 -2.46875 C 3.953125 -1.882812 4.5 -1.59375 5.21875 -1.59375 C 5.5625 -1.59375 5.894531 -1.664062 6.21875 -1.8125 C 6.382812 -1.882812 6.539062 -1.972656 6.6875 -2.078125 C 6.84375 -2.179688 7.019531 -2.320312 7.21875 -2.5 L 7.21875 -0.296875 C 6.90625 -0.128906 6.570312 -0.00390625 6.21875 0.078125 C 5.875 0.160156 5.507812 0.203125 5.125 0.203125 Z M 5.125 0.203125 "/></g></g><g style="fill:#ffffff;fill-opacity:1;"><g transform="translate(209.663702, 58.974972)"><path style="stroke:none" d="M 0.921875 -10.0625 L 2.90625 -10.0625 L 2.90625 -6.234375 L 5.40625 -6.234375 L 5.40625 -10.0625 L 7.390625 -10.0625 L 7.390625 0 L 5.40625 0 L 5.40625 -4.484375 L 2.90625 -4.484375 L 2.90625 0 L 0.921875 0 Z M 0.921875 -10.0625 "/></g></g><g style="fill:#ffffff;fill-opacity:1;"><g transform="translate(217.67835, 58.974972)"><path style="stroke:none" d=""/></g></g><g style="fill:#ffffff;fill-opacity:1;"><g transform="translate(225.692999, 58.974972)"><path style="stroke:none" d="M 1.140625 -10.0625 L 7.40625 -10.0625 L 7.40625 -8.3125 L 3.125 -8.3125 L 3.125 -6.140625 L 7 -6.140625 L 7 -4.390625 L 3.125 -4.390625 L 3.125 -1.75 L 7.40625 -1.75 L 7.40625 0 L 1.140625 0 Z M 1.140625 -10.0625 "/></g></g><g style="fill:#ffffff;fill-opacity:1;"><g transform="translate(233.70766, 58.974972)"><path style="stroke:none" d="M 0.796875 -10.0625 L 2.9375 -10.0625 L 5.75 -2.75 L 5.75 -10.0625 L 7.5 -10.0625 L 7.5 0 L 5.375 0 L 2.5625 -7.3125 L 2.5625 0 L 0.796875 0 Z M 0.796875 -10.0625 "/></g></g><g style="fill:#ffffff;fill-opacity:1;"><g transform="translate(241.722296, 58.974972)"><path style="stroke:none" d="M 4.859375 0.203125 C 3.554688 0.203125 2.554688 -0.25 1.859375 -1.15625 C 1.515625 -1.59375 1.25 -2.128906 1.0625 -2.765625 C 0.882812 -3.398438 0.796875 -4.15625 0.796875 -5.03125 C 0.796875 -6.726562 1.15625 -8.019531 1.875 -8.90625 C 2.59375 -9.800781 3.613281 -10.25 4.9375 -10.25 C 5.363281 -10.25 5.773438 -10.191406 6.171875 -10.078125 C 6.566406 -9.960938 6.929688 -9.796875 7.265625 -9.578125 L 7.265625 -7.375 C 6.984375 -7.738281 6.664062 -8.007812 6.3125 -8.1875 C 5.945312 -8.375 5.550781 -8.46875 5.125 -8.46875 C 4.363281 -8.46875 3.796875 -8.179688 3.421875 -7.609375 C 3.046875 -7.035156 2.859375 -6.175781 2.859375 -5.03125 C 2.859375 -3.914062 3.039062 -3.0625 3.40625 -2.46875 C 3.570312 -2.1875 3.785156 -1.96875 4.046875 -1.8125 C 4.304688 -1.664062 4.617188 -1.59375 4.984375 -1.59375 C 5.066406 -1.59375 5.15625 -1.597656 5.25 -1.609375 C 5.34375 -1.617188 5.429688 -1.632812 5.515625 -1.65625 C 5.609375 -1.675781 5.679688 -1.695312 5.734375 -1.71875 C 5.785156 -1.75 5.832031 -1.785156 5.875 -1.828125 L 5.875 -3.75 L 4.515625 -3.75 L 4.515625 -5.421875 L 7.625 -5.421875 L 7.625 -0.796875 C 7.238281 -0.472656 6.816406 -0.226562 6.359375 -0.0625 C 6.128906 0.0195312 5.890625 0.0820312 5.640625 0.125 C 5.398438 0.175781 5.140625 0.203125 4.859375 0.203125 Z M 4.859375 0.203125 "/></g></g><g style="fill:#ffffff;fill-opacity:1;"><g transform="translate(249.736932, 58.974972)"><path style="stroke:none" d="M 1.15625 -1.75 L 3.15625 -1.75 L 3.15625 -8.3125 L 1.15625 -8.3125 L 1.15625 -10.0625 L 7.15625 -10.0625 L 7.15625 -8.3125 L 5.15625 -8.3125 L 5.15625 -1.75 L 7.15625 -1.75 L 7.15625 0 L 1.15625 0 Z M 1.15625 -1.75 "/></g></g><g style="fill:#ffffff;fill-opacity:1;"><g transform="translate(257.751593, 58.974972)"><path style="stroke:none" d="M 0.796875 -10.0625 L 2.9375 -10.0625 L 5.75 -2.75 L 5.75 -10.0625 L 7.5 -10.0625 L 7.5 0 L 5.375 0 L 2.5625 -7.3125 L 2.5625 0 L 0.796875 0 Z M 0.796875 -10.0625 "/></g></g><g style="fill:#ffffff;fill-opacity:1;"><g transform="translate(265.766253, 58.974972)"><path style="stroke:none" d="M 1.140625 -10.0625 L 7.40625 -10.0625 L 7.40625 -8.3125 L 3.125 -8.3125 L 3.125 -6.140625 L 7 -6.140625 L 7 -4.390625 L 3.125 -4.390625 L 3.125 -1.75 L 7.40625 -1.75 L 7.40625 0 L 1.140625 0 Z M 1.140625 -10.0625 "/></g></g><g style="fill:#ffffff;fill-opacity:1;"><g transform="translate(273.78089, 58.974972)"><path style="stroke:none" d="M 2.5625 1.859375 L 2.65625 1.8125 C 3.113281 1.613281 3.488281 1.34375 3.78125 1 C 4.082031 0.65625 4.253906 0.242188 4.296875 -0.234375 C 4.265625 -0.222656 4.234375 -0.21875 4.203125 -0.21875 C 4.179688 -0.21875 4.148438 -0.21875 4.109375 -0.21875 C 3.796875 -0.21875 3.53125 -0.3125 3.3125 -0.5 C 3.207031 -0.59375 3.125 -0.703125 3.0625 -0.828125 C 3.007812 -0.960938 2.984375 -1.128906 2.984375 -1.328125 C 2.984375 -1.441406 3 -1.546875 3.03125 -1.640625 C 3.0625 -1.765625 3.09375 -1.859375 3.125 -1.921875 C 3.164062 -1.992188 3.234375 -2.070312 3.328125 -2.15625 C 3.460938 -2.257812 3.59375 -2.332031 3.71875 -2.375 C 3.851562 -2.425781 4.003906 -2.453125 4.171875 -2.453125 C 4.242188 -2.453125 4.3125 -2.445312 4.375 -2.4375 C 4.4375 -2.425781 4.5 -2.414062 4.5625 -2.40625 C 4.675781 -2.375 4.785156 -2.316406 4.890625 -2.234375 C 4.984375 -2.160156 5.070312 -2.066406 5.15625 -1.953125 C 5.375 -1.640625 5.484375 -1.195312 5.484375 -0.625 C 5.484375 -0.238281 5.429688 0.128906 5.328125 0.484375 C 5.273438 0.640625 5.207031 0.796875 5.125 0.953125 C 5.050781 1.109375 4.957031 1.265625 4.84375 1.421875 C 4.625 1.722656 4.363281 1.972656 4.0625 2.171875 C 3.757812 2.378906 3.421875 2.554688 3.046875 2.703125 L 2.953125 2.734375 Z M 2.5625 1.859375 "/></g></g><g style="fill:#ffffff;fill-opacity:1;"><g transform="translate(17.312138, 71.733213)"><path style="stroke:none" d="M 4.15625 0.203125 C 3.550781 0.203125 3.03125 0.0859375 2.59375 -0.140625 C 2.15625 -0.367188 1.796875 -0.695312 1.515625 -1.125 C 0.921875 -2 0.625 -3.300781 0.625 -5.03125 C 0.625 -6.738281 0.921875 -8.039062 1.515625 -8.9375 C 1.828125 -9.394531 2.207031 -9.726562 2.65625 -9.9375 C 3.101562 -10.144531 3.601562 -10.25 4.15625 -10.25 C 5.320312 -10.25 6.207031 -9.804688 6.8125 -8.921875 C 7.40625 -8.046875 7.703125 -6.75 7.703125 -5.03125 C 7.703125 -3.3125 7.40625 -2.007812 6.8125 -1.125 C 6.519531 -0.695312 6.15625 -0.367188 5.71875 -0.140625 C 5.28125 0.0859375 4.757812 0.203125 4.15625 0.203125 Z M 4.15625 -1.59375 C 4.664062 -1.59375 5.039062 -1.863281 5.28125 -2.40625 C 5.507812 -2.9375 5.625 -3.8125 5.625 -5.03125 C 5.625 -6.25 5.507812 -7.117188 5.28125 -7.640625 C 5.039062 -8.191406 4.664062 -8.46875 4.15625 -8.46875 C 3.65625 -8.46875 3.285156 -8.191406 3.046875 -7.640625 C 2.804688 -7.117188 2.6875 -6.25 2.6875 -5.03125 C 2.6875 -3.8125 2.804688 -2.9375 3.046875 -2.40625 C 3.273438 -1.863281 3.644531 -1.59375 4.15625 -1.59375 Z M 4.15625 -1.59375 "/></g></g><g style="fill:#ffffff;fill-opacity:1;"><g transform="translate(25.326786, 71.733213)"><path style="stroke:none" d="M 1.125 -10.0625 L 3.84375 -10.0625 C 5.226562 -10.0625 6.234375 -9.816406 6.859375 -9.328125 C 7.460938 -8.835938 7.765625 -8.035156 7.765625 -6.921875 C 7.765625 -5.804688 7.460938 -5.003906 6.859375 -4.515625 C 6.234375 -4.015625 5.226562 -3.765625 3.84375 -3.765625 L 3.109375 -3.765625 L 3.109375 0 L 1.125 0 Z M 3.921875 -5.4375 C 4.578125 -5.4375 5.035156 -5.546875 5.296875 -5.765625 C 5.554688 -5.992188 5.6875 -6.378906 5.6875 -6.921875 C 5.6875 -7.460938 5.554688 -7.84375 5.296875 -8.0625 C 5.035156 -8.28125 4.578125 -8.390625 3.921875 -8.390625 L 3.109375 -8.390625 L 3.109375 -5.4375 Z M 3.921875 -5.4375 "/></g></g><g style="fill:#ffffff;fill-opacity:1;"><g transform="translate(33.341435, 71.733213)"><path style="stroke:none" d="M 1.140625 -10.0625 L 7.40625 -10.0625 L 7.40625 -8.3125 L 3.125 -8.3125 L 3.125 -6.140625 L 7 -6.140625 L 7 -4.390625 L 3.125 -4.390625 L 3.125 -1.75 L 7.40625 -1.75 L 7.40625 0 L 1.140625 0 Z M 1.140625 -10.0625 "/></g></g><g style="fill:#ffffff;fill-opacity:1;"><g transform="translate(41.356083, 71.733213)"><path style="stroke:none" d="M 0.796875 -10.0625 L 2.9375 -10.0625 L 5.75 -2.75 L 5.75 -10.0625 L 7.5 -10.0625 L 7.5 0 L 5.375 0 L 2.5625 -7.3125 L 2.5625 0 L 0.796875 0 Z M 0.796875 -10.0625 "/></g></g><g style="fill:#ffffff;fill-opacity:1;"><g transform="translate(49.370732, 71.733213)"><path style="stroke:none" d="M 1.484375 -5.03125 L 6.828125 -5.03125 L 6.828125 -3.0625 L 1.484375 -3.0625 Z M 1.484375 -5.03125 "/></g></g><g style="fill:#ffffff;fill-opacity:1;"><g transform="translate(57.38538, 71.733213)"><path style="stroke:none" d="M 3.921875 0.203125 C 3.648438 0.203125 3.382812 0.1875 3.125 0.15625 C 2.875 0.125 2.625 0.078125 2.375 0.015625 C 1.84375 -0.0976562 1.351562 -0.273438 0.90625 -0.515625 L 0.90625 -2.5625 C 1.445312 -2.1875 1.960938 -1.910156 2.453125 -1.734375 C 2.953125 -1.546875 3.4375 -1.453125 3.90625 -1.453125 C 4.40625 -1.453125 4.789062 -1.5625 5.0625 -1.78125 C 5.332031 -2.007812 5.46875 -2.320312 5.46875 -2.71875 C 5.46875 -3.03125 5.378906 -3.296875 5.203125 -3.515625 C 5.109375 -3.628906 4.992188 -3.726562 4.859375 -3.8125 C 4.722656 -3.90625 4.578125 -3.984375 4.421875 -4.046875 L 3.4375 -4.421875 C 2.914062 -4.617188 2.488281 -4.816406 2.15625 -5.015625 C 1.832031 -5.210938 1.582031 -5.414062 1.40625 -5.625 C 1.050781 -6.03125 0.875 -6.59375 0.875 -7.3125 C 0.875 -8.226562 1.164062 -8.945312 1.75 -9.46875 C 2.332031 -9.988281 3.128906 -10.25 4.140625 -10.25 C 4.640625 -10.25 5.109375 -10.195312 5.546875 -10.09375 C 5.984375 -10 6.441406 -9.84375 6.921875 -9.625 L 6.921875 -7.6875 C 6.054688 -8.300781 5.179688 -8.609375 4.296875 -8.609375 C 3.816406 -8.609375 3.453125 -8.507812 3.203125 -8.3125 C 2.941406 -8.125 2.8125 -7.851562 2.8125 -7.5 C 2.8125 -7.207031 2.910156 -6.972656 3.109375 -6.796875 C 3.191406 -6.703125 3.320312 -6.609375 3.5 -6.515625 C 3.675781 -6.421875 3.929688 -6.3125 4.265625 -6.1875 L 5.125 -5.875 C 5.9375 -5.570312 6.53125 -5.175781 6.90625 -4.6875 C 7.289062 -4.195312 7.484375 -3.566406 7.484375 -2.796875 C 7.484375 -1.804688 7.179688 -1.0625 6.578125 -0.5625 C 5.972656 -0.0507812 5.085938 0.203125 3.921875 0.203125 Z M 3.921875 0.203125 "/></g></g><g style="fill:#ffffff;fill-opacity:1;"><g transform="translate(65.400029, 71.733213)"><path style="stroke:none" d="M 4.15625 0.203125 C 3.550781 0.203125 3.03125 0.0859375 2.59375 -0.140625 C 2.15625 -0.367188 1.796875 -0.695312 1.515625 -1.125 C 0.921875 -2 0.625 -3.300781 0.625 -5.03125 C 0.625 -6.738281 0.921875 -8.039062 1.515625 -8.9375 C 1.828125 -9.394531 2.207031 -9.726562 2.65625 -9.9375 C 3.101562 -10.144531 3.601562 -10.25 4.15625 -10.25 C 5.320312 -10.25 6.207031 -9.804688 6.8125 -8.921875 C 7.40625 -8.046875 7.703125 -6.75 7.703125 -5.03125 C 7.703125 -3.3125 7.40625 -2.007812 6.8125 -1.125 C 6.519531 -0.695312 6.15625 -0.367188 5.71875 -0.140625 C 5.28125 0.0859375 4.757812 0.203125 4.15625 0.203125 Z M 4.15625 -1.59375 C 4.664062 -1.59375 5.039062 -1.863281 5.28125 -2.40625 C 5.507812 -2.9375 5.625 -3.8125 5.625 -5.03125 C 5.625 -6.25 5.507812 -7.117188 5.28125 -7.640625 C 5.039062 -8.191406 4.664062 -8.46875 4.15625 -8.46875 C 3.65625 -8.46875 3.285156 -8.191406 3.046875 -7.640625 C 2.804688 -7.117188 2.6875 -6.25 2.6875 -5.03125 C 2.6875 -3.8125 2.804688 -2.9375 3.046875 -2.40625 C 3.273438 -1.863281 3.644531 -1.59375 4.15625 -1.59375 Z M 4.15625 -1.59375 "/></g></g><g style="fill:#ffffff;fill-opacity:1;"><g transform="translate(73.414677, 71.733213)"><path style="stroke:none" d="M 4.15625 0.203125 C 2.957031 0.203125 2.082031 -0.109375 1.53125 -0.734375 C 0.988281 -1.359375 0.71875 -2.351562 0.71875 -3.71875 L 0.71875 -10.0625 L 2.703125 -10.0625 L 2.703125 -3.21875 C 2.703125 -2.707031 2.832031 -2.3125 3.09375 -2.03125 C 3.34375 -1.75 3.695312 -1.609375 4.15625 -1.609375 C 4.601562 -1.609375 4.957031 -1.75 5.21875 -2.03125 C 5.476562 -2.3125 5.609375 -2.707031 5.609375 -3.21875 L 5.609375 -10.0625 L 7.59375 -10.0625 L 7.59375 -3.71875 C 7.59375 -2.34375 7.320312 -1.347656 6.78125 -0.734375 C 6.238281 -0.109375 5.363281 0.203125 4.15625 0.203125 Z M 4.15625 0.203125 "/></g></g><g style="fill:#ffffff;fill-opacity:1;"><g transform="translate(81.429326, 71.733213)"><path style="stroke:none" d="M 0.890625 -10.0625 L 3.765625 -10.0625 C 5.066406 -10.0625 6 -9.832031 6.5625 -9.375 C 6.84375 -9.144531 7.050781 -8.84375 7.1875 -8.46875 C 7.332031 -8.09375 7.40625 -7.660156 7.40625 -7.171875 C 7.40625 -6.796875 7.363281 -6.472656 7.28125 -6.203125 C 7.195312 -5.929688 7.070312 -5.691406 6.90625 -5.484375 C 6.738281 -5.285156 6.535156 -5.125 6.296875 -5 C 6.066406 -4.882812 5.78125 -4.800781 5.4375 -4.75 C 5.65625 -4.707031 5.832031 -4.617188 5.96875 -4.484375 C 6.03125 -4.410156 6.101562 -4.300781 6.1875 -4.15625 C 6.28125 -4.019531 6.382812 -3.84375 6.5 -3.625 L 8.3125 0 L 6.125 0 L 4.921875 -2.546875 L 4.78125 -2.84375 C 4.582031 -3.226562 4.382812 -3.515625 4.1875 -3.703125 C 3.988281 -3.890625 3.765625 -3.984375 3.515625 -3.984375 L 2.890625 -3.984375 L 2.890625 0 L 0.890625 0 Z M 3.828125 -5.65625 C 4.367188 -5.65625 4.757812 -5.757812 5 -5.96875 C 5.101562 -6.070312 5.1875 -6.207031 5.25 -6.375 C 5.3125 -6.539062 5.34375 -6.757812 5.34375 -7.03125 C 5.34375 -7.519531 5.226562 -7.867188 5 -8.078125 C 4.757812 -8.285156 4.367188 -8.390625 3.828125 -8.390625 L 2.890625 -8.390625 L 2.890625 -5.65625 Z M 3.828125 -5.65625 "/></g></g><g style="fill:#ffffff;fill-opacity:1;"><g transform="translate(89.443974, 71.733213)"><path style="stroke:none" d="M 5.125 0.203125 C 3.78125 0.203125 2.742188 -0.242188 2.015625 -1.140625 C 1.304688 -2.046875 0.953125 -3.34375 0.953125 -5.03125 C 0.953125 -6.71875 1.304688 -8.007812 2.015625 -8.90625 C 2.742188 -9.800781 3.78125 -10.25 5.125 -10.25 C 5.507812 -10.25 5.878906 -10.207031 6.234375 -10.125 C 6.585938 -10.050781 6.914062 -9.929688 7.21875 -9.765625 L 7.21875 -7.546875 C 7.007812 -7.742188 6.828125 -7.894531 6.671875 -8 C 6.515625 -8.101562 6.363281 -8.1875 6.21875 -8.25 C 6.050781 -8.320312 5.882812 -8.375 5.71875 -8.40625 C 5.550781 -8.445312 5.382812 -8.46875 5.21875 -8.46875 C 4.5 -8.46875 3.953125 -8.175781 3.578125 -7.59375 C 3.203125 -7.007812 3.015625 -6.15625 3.015625 -5.03125 C 3.015625 -3.894531 3.203125 -3.039062 3.578125 -2.46875 C 3.953125 -1.882812 4.5 -1.59375 5.21875 -1.59375 C 5.5625 -1.59375 5.894531 -1.664062 6.21875 -1.8125 C 6.382812 -1.882812 6.539062 -1.972656 6.6875 -2.078125 C 6.84375 -2.179688 7.019531 -2.320312 7.21875 -2.5 L 7.21875 -0.296875 C 6.90625 -0.128906 6.570312 -0.00390625 6.21875 0.078125 C 5.875 0.160156 5.507812 0.203125 5.125 0.203125 Z M 5.125 0.203125 "/></g></g><g style="fill:#ffffff;fill-opacity:1;"><g transform="translate(97.458623, 71.733213)"><path style="stroke:none" d="M 1.140625 -10.0625 L 7.40625 -10.0625 L 7.40625 -8.3125 L 3.125 -8.3125 L 3.125 -6.140625 L 7 -6.140625 L 7 -4.390625 L 3.125 -4.390625 L 3.125 -1.75 L 7.40625 -1.75 L 7.40625 0 L 1.140625 0 Z M 1.140625 -10.0625 "/></g></g><g style="fill:#ffffff;fill-opacity:1;"><g transform="translate(105.473271, 71.733213)"><path style="stroke:none" d=""/></g></g><g style="fill:#ffffff;fill-opacity:1;"><g transform="translate(113.48792, 71.733213)"><path style="stroke:none" d="M 3.625 0.203125 C 2.625 0.203125 1.8125 -0.09375 1.1875 -0.6875 C 0.5625 -1.269531 0.25 -2.035156 0.25 -2.984375 C 0.25 -3.328125 0.289062 -3.644531 0.375 -3.9375 C 0.457031 -4.226562 0.578125 -4.503906 0.734375 -4.765625 C 1.046875 -5.296875 1.515625 -5.757812 2.140625 -6.15625 C 2.015625 -6.351562 1.910156 -6.53125 1.828125 -6.6875 C 1.753906 -6.851562 1.691406 -7.003906 1.640625 -7.140625 C 1.535156 -7.429688 1.484375 -7.722656 1.484375 -8.015625 C 1.484375 -8.722656 1.726562 -9.273438 2.21875 -9.671875 C 2.707031 -10.054688 3.414062 -10.25 4.34375 -10.25 C 4.507812 -10.25 4.671875 -10.242188 4.828125 -10.234375 C 4.984375 -10.222656 5.140625 -10.203125 5.296875 -10.171875 C 5.617188 -10.128906 5.929688 -10.0625 6.234375 -9.96875 L 6.234375 -8.234375 C 5.660156 -8.566406 5.070312 -8.734375 4.46875 -8.734375 C 4.113281 -8.734375 3.84375 -8.664062 3.65625 -8.53125 C 3.476562 -8.40625 3.390625 -8.226562 3.390625 -8 C 3.390625 -7.90625 3.40625 -7.804688 3.4375 -7.703125 C 3.46875 -7.597656 3.519531 -7.46875 3.59375 -7.3125 C 3.726562 -7.039062 3.945312 -6.671875 4.25 -6.203125 L 6.359375 -2.96875 C 6.460938 -3.125 6.535156 -3.316406 6.578125 -3.546875 C 6.628906 -3.796875 6.65625 -4.035156 6.65625 -4.265625 C 6.65625 -4.328125 6.65625 -4.394531 6.65625 -4.46875 C 6.65625 -4.539062 6.648438 -4.609375 6.640625 -4.671875 C 6.640625 -4.785156 6.628906 -4.90625 6.609375 -5.03125 L 8.1875 -5.03125 L 8.1875 -4.6875 C 8.1875 -4.019531 8.109375 -3.445312 7.953125 -2.96875 C 7.804688 -2.476562 7.566406 -2.039062 7.234375 -1.65625 L 8.328125 0 L 6.1875 0 L 5.875 -0.484375 C 5.695312 -0.367188 5.519531 -0.269531 5.34375 -0.1875 C 5.175781 -0.113281 4.992188 -0.046875 4.796875 0.015625 C 4.609375 0.078125 4.421875 0.125 4.234375 0.15625 C 4.046875 0.1875 3.84375 0.203125 3.625 0.203125 Z M 3.90625 -1.390625 C 4.019531 -1.390625 4.148438 -1.40625 4.296875 -1.4375 C 4.359375 -1.457031 4.414062 -1.472656 4.46875 -1.484375 C 4.519531 -1.503906 4.585938 -1.53125 4.671875 -1.5625 L 4.734375 -1.59375 C 4.816406 -1.632812 4.875 -1.664062 4.90625 -1.6875 C 4.945312 -1.707031 4.992188 -1.734375 5.046875 -1.765625 L 2.96875 -4.9375 C 2.664062 -4.738281 2.441406 -4.507812 2.296875 -4.25 C 2.148438 -3.976562 2.078125 -3.671875 2.078125 -3.328125 C 2.078125 -3.035156 2.125 -2.773438 2.21875 -2.546875 C 2.320312 -2.316406 2.445312 -2.125 2.59375 -1.96875 C 2.945312 -1.582031 3.382812 -1.390625 3.90625 -1.390625 Z M 3.90625 -1.390625 "/></g></g><g style="fill:#ffffff;fill-opacity:1;"><g transform="translate(121.502568, 71.733213)"><path style="stroke:none" d=""/></g></g><g style="fill:#ffffff;fill-opacity:1;"><g transform="translate(129.517217, 71.733213)"><path style="stroke:none" d="M 1.125 -10.0625 L 3.84375 -10.0625 C 5.226562 -10.0625 6.234375 -9.816406 6.859375 -9.328125 C 7.460938 -8.835938 7.765625 -8.035156 7.765625 -6.921875 C 7.765625 -5.804688 7.460938 -5.003906 6.859375 -4.515625 C 6.234375 -4.015625 5.226562 -3.765625 3.84375 -3.765625 L 3.109375 -3.765625 L 3.109375 0 L 1.125 0 Z M 3.921875 -5.4375 C 4.578125 -5.4375 5.035156 -5.546875 5.296875 -5.765625 C 5.554688 -5.992188 5.6875 -6.378906 5.6875 -6.921875 C 5.6875 -7.460938 5.554688 -7.84375 5.296875 -8.0625 C 5.035156 -8.28125 4.578125 -8.390625 3.921875 -8.390625 L 3.109375 -8.390625 L 3.109375 -5.4375 Z M 3.921875 -5.4375 "/></g></g><g style="fill:#ffffff;fill-opacity:1;"><g transform="translate(137.531865, 71.733213)"><path style="stroke:none" d="M 4.15625 0.203125 C 3.550781 0.203125 3.03125 0.0859375 2.59375 -0.140625 C 2.15625 -0.367188 1.796875 -0.695312 1.515625 -1.125 C 0.921875 -2 0.625 -3.300781 0.625 -5.03125 C 0.625 -6.738281 0.921875 -8.039062 1.515625 -8.9375 C 1.828125 -9.394531 2.207031 -9.726562 2.65625 -9.9375 C 3.101562 -10.144531 3.601562 -10.25 4.15625 -10.25 C 5.320312 -10.25 6.207031 -9.804688 6.8125 -8.921875 C 7.40625 -8.046875 7.703125 -6.75 7.703125 -5.03125 C 7.703125 -3.3125 7.40625 -2.007812 6.8125 -1.125 C 6.519531 -0.695312 6.15625 -0.367188 5.71875 -0.140625 C 5.28125 0.0859375 4.757812 0.203125 4.15625 0.203125 Z M 4.15625 -1.59375 C 4.664062 -1.59375 5.039062 -1.863281 5.28125 -2.40625 C 5.507812 -2.9375 5.625 -3.8125 5.625 -5.03125 C 5.625 -6.25 5.507812 -7.117188 5.28125 -7.640625 C 5.039062 -8.191406 4.664062 -8.46875 4.15625 -8.46875 C 3.65625 -8.46875 3.285156 -8.191406 3.046875 -7.640625 C 2.804688 -7.117188 2.6875 -6.25 2.6875 -5.03125 C 2.6875 -3.8125 2.804688 -2.9375 3.046875 -2.40625 C 3.273438 -1.863281 3.644531 -1.59375 4.15625 -1.59375 Z M 4.15625 -1.59375 "/></g></g><g style="fill:#ffffff;fill-opacity:1;"><g transform="translate(145.546514, 71.733213)"><path style="stroke:none" d="M 0 -10.0625 L 1.734375 -10.0625 L 2.46875 -2.671875 L 3.328125 -7.453125 L 4.984375 -7.453125 L 6 -2.671875 L 6.5625 -10.0625 L 8.3125 -10.0625 L 7.15625 0 L 5.296875 0 L 4.15625 -5.28125 L 3.078125 0 L 1.234375 0 Z M 0 -10.0625 "/></g></g><g style="fill:#ffffff;fill-opacity:1;"><g transform="translate(153.561162, 71.733213)"><path style="stroke:none" d="M 1.140625 -10.0625 L 7.40625 -10.0625 L 7.40625 -8.3125 L 3.125 -8.3125 L 3.125 -6.140625 L 7 -6.140625 L 7 -4.390625 L 3.125 -4.390625 L 3.125 -1.75 L 7.40625 -1.75 L 7.40625 0 L 1.140625 0 Z M 1.140625 -10.0625 "/></g></g><g style="fill:#ffffff;fill-opacity:1;"><g transform="translate(161.575811, 71.733213)"><path style="stroke:none" d="M 0.890625 -10.0625 L 3.765625 -10.0625 C 5.066406 -10.0625 6 -9.832031 6.5625 -9.375 C 6.84375 -9.144531 7.050781 -8.84375 7.1875 -8.46875 C 7.332031 -8.09375 7.40625 -7.660156 7.40625 -7.171875 C 7.40625 -6.796875 7.363281 -6.472656 7.28125 -6.203125 C 7.195312 -5.929688 7.070312 -5.691406 6.90625 -5.484375 C 6.738281 -5.285156 6.535156 -5.125 6.296875 -5 C 6.066406 -4.882812 5.78125 -4.800781 5.4375 -4.75 C 5.65625 -4.707031 5.832031 -4.617188 5.96875 -4.484375 C 6.03125 -4.410156 6.101562 -4.300781 6.1875 -4.15625 C 6.28125 -4.019531 6.382812 -3.84375 6.5 -3.625 L 8.3125 0 L 6.125 0 L 4.921875 -2.546875 L 4.78125 -2.84375 C 4.582031 -3.226562 4.382812 -3.515625 4.1875 -3.703125 C 3.988281 -3.890625 3.765625 -3.984375 3.515625 -3.984375 L 2.890625 -3.984375 L 2.890625 0 L 0.890625 0 Z M 3.828125 -5.65625 C 4.367188 -5.65625 4.757812 -5.757812 5 -5.96875 C 5.101562 -6.070312 5.1875 -6.207031 5.25 -6.375 C 5.3125 -6.539062 5.34375 -6.757812 5.34375 -7.03125 C 5.34375 -7.519531 5.226562 -7.867188 5 -8.078125 C 4.757812 -8.285156 4.367188 -8.390625 3.828125 -8.390625 L 2.890625 -8.390625 L 2.890625 -5.65625 Z M 3.828125 -5.65625 "/></g></g><g style="fill:#ffffff;fill-opacity:1;"><g transform="translate(169.590459, 71.733213)"><path style="stroke:none" d="M 1.140625 -10.0625 L 7.40625 -10.0625 L 7.40625 -8.3125 L 3.125 -8.3125 L 3.125 -6.140625 L 7 -6.140625 L 7 -4.390625 L 3.125 -4.390625 L 3.125 -1.75 L 7.40625 -1.75 L 7.40625 0 L 1.140625 0 Z M 1.140625 -10.0625 "/></g></g><g style="fill:#ffffff;fill-opacity:1;"><g transform="translate(177.605108, 71.733213)"><path style="stroke:none" d="M 0.921875 -10.0625 L 3.0625 -10.0625 C 4.707031 -10.0625 5.890625 -9.671875 6.609375 -8.890625 C 6.960938 -8.503906 7.234375 -7.992188 7.421875 -7.359375 C 7.609375 -6.722656 7.703125 -5.945312 7.703125 -5.03125 C 7.703125 -3.257812 7.335938 -1.976562 6.609375 -1.1875 C 5.890625 -0.394531 4.707031 0 3.0625 0 L 0.921875 0 Z M 3.453125 -1.796875 C 4.234375 -1.796875 4.789062 -2.039062 5.125 -2.53125 C 5.457031 -3.03125 5.625 -3.867188 5.625 -5.046875 C 5.625 -6.210938 5.457031 -7.046875 5.125 -7.546875 C 4.800781 -8.035156 4.242188 -8.28125 3.453125 -8.28125 L 2.90625 -8.28125 L 2.90625 -1.796875 Z M 3.453125 -1.796875 "/></g></g><g style="fill:#ffffff;fill-opacity:1;"><g transform="translate(185.619756, 71.733213)"><path style="stroke:none" d=""/></g></g><g style="fill:#ffffff;fill-opacity:1;"><g transform="translate(193.634405, 71.733213)"><path style="stroke:none" d="M 0.84375 -10.078125 L 4.09375 -10.078125 C 5.21875 -10.078125 6.054688 -9.867188 6.609375 -9.453125 C 7.171875 -9.023438 7.453125 -8.390625 7.453125 -7.546875 C 7.453125 -6.898438 7.285156 -6.390625 6.953125 -6.015625 C 6.617188 -5.648438 6.132812 -5.441406 5.5 -5.390625 C 6.269531 -5.316406 6.847656 -5.054688 7.234375 -4.609375 C 7.617188 -4.171875 7.8125 -3.554688 7.8125 -2.765625 C 7.8125 -1.796875 7.519531 -1.09375 6.9375 -0.65625 C 6.351562 -0.21875 5.40625 0 4.09375 0 L 0.84375 0 Z M 4.09375 -6.15625 C 4.59375 -6.15625 4.953125 -6.25 5.171875 -6.4375 C 5.273438 -6.519531 5.351562 -6.628906 5.40625 -6.765625 C 5.457031 -6.910156 5.484375 -7.09375 5.484375 -7.3125 C 5.484375 -7.71875 5.375 -8.019531 5.15625 -8.21875 C 5.0625 -8.300781 4.929688 -8.367188 4.765625 -8.421875 C 4.609375 -8.472656 4.382812 -8.5 4.09375 -8.5 L 2.765625 -8.5 L 2.765625 -6.15625 Z M 4.09375 -1.59375 C 4.71875 -1.59375 5.160156 -1.703125 5.421875 -1.921875 C 5.671875 -2.128906 5.796875 -2.503906 5.796875 -3.046875 C 5.796875 -3.585938 5.660156 -3.976562 5.390625 -4.21875 C 5.128906 -4.457031 4.695312 -4.578125 4.09375 -4.578125 L 2.765625 -4.578125 L 2.765625 -1.59375 Z M 4.09375 -1.59375 "/></g></g><g style="fill:#ffffff;fill-opacity:1;"><g transform="translate(201.649053, 71.733213)"><path style="stroke:none" d="M 3.15625 -3.96875 L 0.046875 -10.0625 L 2.203125 -10.0625 L 4.15625 -6.015625 L 6.109375 -10.0625 L 8.265625 -10.0625 L 5.15625 -3.96875 L 5.15625 0 L 3.15625 0 Z M 3.15625 -3.96875 "/></g></g><g style="fill:#ffffff;fill-opacity:1;"><g transform="translate(209.663702, 71.733213)"><path style="stroke:none" d=""/></g></g><g style="fill:#ffffff;fill-opacity:1;"><g transform="translate(217.67835, 71.733213)"><path style="stroke:none" d="M 3.921875 0.203125 C 3.648438 0.203125 3.382812 0.1875 3.125 0.15625 C 2.875 0.125 2.625 0.078125 2.375 0.015625 C 1.84375 -0.0976562 1.351562 -0.273438 0.90625 -0.515625 L 0.90625 -2.5625 C 1.445312 -2.1875 1.960938 -1.910156 2.453125 -1.734375 C 2.953125 -1.546875 3.4375 -1.453125 3.90625 -1.453125 C 4.40625 -1.453125 4.789062 -1.5625 5.0625 -1.78125 C 5.332031 -2.007812 5.46875 -2.320312 5.46875 -2.71875 C 5.46875 -3.03125 5.378906 -3.296875 5.203125 -3.515625 C 5.109375 -3.628906 4.992188 -3.726562 4.859375 -3.8125 C 4.722656 -3.90625 4.578125 -3.984375 4.421875 -4.046875 L 3.4375 -4.421875 C 2.914062 -4.617188 2.488281 -4.816406 2.15625 -5.015625 C 1.832031 -5.210938 1.582031 -5.414062 1.40625 -5.625 C 1.050781 -6.03125 0.875 -6.59375 0.875 -7.3125 C 0.875 -8.226562 1.164062 -8.945312 1.75 -9.46875 C 2.332031 -9.988281 3.128906 -10.25 4.140625 -10.25 C 4.640625 -10.25 5.109375 -10.195312 5.546875 -10.09375 C 5.984375 -10 6.441406 -9.84375 6.921875 -9.625 L 6.921875 -7.6875 C 6.054688 -8.300781 5.179688 -8.609375 4.296875 -8.609375 C 3.816406 -8.609375 3.453125 -8.507812 3.203125 -8.3125 C 2.941406 -8.125 2.8125 -7.851562 2.8125 -7.5 C 2.8125 -7.207031 2.910156 -6.972656 3.109375 -6.796875 C 3.191406 -6.703125 3.320312 -6.609375 3.5 -6.515625 C 3.675781 -6.421875 3.929688 -6.3125 4.265625 -6.1875 L 5.125 -5.875 C 5.9375 -5.570312 6.53125 -5.175781 6.90625 -4.6875 C 7.289062 -4.195312 7.484375 -3.566406 7.484375 -2.796875 C 7.484375 -1.804688 7.179688 -1.0625 6.578125 -0.5625 C 5.972656 -0.0507812 5.085938 0.203125 3.921875 0.203125 Z M 3.921875 0.203125 "/></g></g><g style="fill:#ffffff;fill-opacity:1;"><g transform="translate(225.692999, 71.733213)"><path style="stroke:none" d="M 1.140625 -10.0625 L 7.40625 -10.0625 L 7.40625 -8.3125 L 3.125 -8.3125 L 3.125 -6.140625 L 7 -6.140625 L 7 -4.390625 L 3.125 -4.390625 L 3.125 -1.75 L 7.40625 -1.75 L 7.40625 0 L 1.140625 0 Z M 1.140625 -10.0625 "/></g></g><g style="fill:#ffffff;fill-opacity:1;"><g transform="translate(233.70766, 71.733213)"><path style="stroke:none" d="M 2.9375 -10.0625 L 5.375 -10.0625 L 8.09375 0 L 6.109375 0 L 5.484375 -2.484375 L 2.8125 -2.484375 L 2.21875 0 L 0.21875 0 Z M 5.09375 -4.125 L 4.15625 -8.25 L 3.21875 -4.125 Z M 5.09375 -4.125 "/></g></g><g style="fill:#ffffff;fill-opacity:1;"><g transform="translate(241.722296, 71.733213)"><path style="stroke:none" d="M 0.890625 -10.0625 L 3.765625 -10.0625 C 5.066406 -10.0625 6 -9.832031 6.5625 -9.375 C 6.84375 -9.144531 7.050781 -8.84375 7.1875 -8.46875 C 7.332031 -8.09375 7.40625 -7.660156 7.40625 -7.171875 C 7.40625 -6.796875 7.363281 -6.472656 7.28125 -6.203125 C 7.195312 -5.929688 7.070312 -5.691406 6.90625 -5.484375 C 6.738281 -5.285156 6.535156 -5.125 6.296875 -5 C 6.066406 -4.882812 5.78125 -4.800781 5.4375 -4.75 C 5.65625 -4.707031 5.832031 -4.617188 5.96875 -4.484375 C 6.03125 -4.410156 6.101562 -4.300781 6.1875 -4.15625 C 6.28125 -4.019531 6.382812 -3.84375 6.5 -3.625 L 8.3125 0 L 6.125 0 L 4.921875 -2.546875 L 4.78125 -2.84375 C 4.582031 -3.226562 4.382812 -3.515625 4.1875 -3.703125 C 3.988281 -3.890625 3.765625 -3.984375 3.515625 -3.984375 L 2.890625 -3.984375 L 2.890625 0 L 0.890625 0 Z M 3.828125 -5.65625 C 4.367188 -5.65625 4.757812 -5.757812 5 -5.96875 C 5.101562 -6.070312 5.1875 -6.207031 5.25 -6.375 C 5.3125 -6.539062 5.34375 -6.757812 5.34375 -7.03125 C 5.34375 -7.519531 5.226562 -7.867188 5 -8.078125 C 4.757812 -8.285156 4.367188 -8.390625 3.828125 -8.390625 L 2.890625 -8.390625 L 2.890625 -5.65625 Z M 3.828125 -5.65625 "/></g></g><g style="fill:#ffffff;fill-opacity:1;"><g transform="translate(249.736932, 71.733213)"><path style="stroke:none" d="M 3.140625 -5.109375 L 0.265625 -10.0625 L 2.3125 -10.0625 L 4.15625 -6.859375 L 6 -10.0625 L 8.046875 -10.0625 L 5.1875 -5.109375 L 8.140625 0 L 6.078125 0 L 4.15625 -3.328125 L 2.234375 0 L 0.1875 0 Z M 3.140625 -5.109375 "/></g></g><g style="fill:#ffffff;fill-opacity:1;"><g transform="translate(257.751593, 71.733213)"><path style="stroke:none" d="M 0.796875 -10.0625 L 2.9375 -10.0625 L 5.75 -2.75 L 5.75 -10.0625 L 7.5 -10.0625 L 7.5 0 L 5.375 0 L 2.5625 -7.3125 L 2.5625 0 L 0.796875 0 Z M 0.796875 -10.0625 "/></g></g><g style="fill:#ffffff;fill-opacity:1;"><g transform="translate(265.766253, 71.733213)"><path style="stroke:none" d="M 4.859375 0.203125 C 3.554688 0.203125 2.554688 -0.25 1.859375 -1.15625 C 1.515625 -1.59375 1.25 -2.128906 1.0625 -2.765625 C 0.882812 -3.398438 0.796875 -4.15625 0.796875 -5.03125 C 0.796875 -6.726562 1.15625 -8.019531 1.875 -8.90625 C 2.59375 -9.800781 3.613281 -10.25 4.9375 -10.25 C 5.363281 -10.25 5.773438 -10.191406 6.171875 -10.078125 C 6.566406 -9.960938 6.929688 -9.796875 7.265625 -9.578125 L 7.265625 -7.375 C 6.984375 -7.738281 6.664062 -8.007812 6.3125 -8.1875 C 5.945312 -8.375 5.550781 -8.46875 5.125 -8.46875 C 4.363281 -8.46875 3.796875 -8.179688 3.421875 -7.609375 C 3.046875 -7.035156 2.859375 -6.175781 2.859375 -5.03125 C 2.859375 -3.914062 3.039062 -3.0625 3.40625 -2.46875 C 3.570312 -2.1875 3.785156 -1.96875 4.046875 -1.8125 C 4.304688 -1.664062 4.617188 -1.59375 4.984375 -1.59375 C 5.066406 -1.59375 5.15625 -1.597656 5.25 -1.609375 C 5.34375 -1.617188 5.429688 -1.632812 5.515625 -1.65625 C 5.609375 -1.675781 5.679688 -1.695312 5.734375 -1.71875 C 5.785156 -1.75 5.832031 -1.785156 5.875 -1.828125 L 5.875 -3.75 L 4.515625 -3.75 L 4.515625 -5.421875 L 7.625 -5.421875 L 7.625 -0.796875 C 7.238281 -0.472656 6.816406 -0.226562 6.359375 -0.0625 C 6.128906 0.0195312 5.890625 0.0820312 5.640625 0.125 C 5.398438 0.175781 5.140625 0.203125 4.859375 0.203125 Z M 4.859375 0.203125 "/></g></g><g style="fill:#ffffff;fill-opacity:1;"><g transform="translate(273.78089, 71.733213)"><path style="stroke:none" d="M 4.125 0.28125 C 3.945312 0.28125 3.789062 0.25 3.65625 0.1875 C 3.519531 0.125 3.398438 0.0390625 3.296875 -0.0625 C 3.054688 -0.300781 2.9375 -0.597656 2.9375 -0.953125 C 2.9375 -1.316406 3.054688 -1.617188 3.296875 -1.859375 C 3.523438 -2.085938 3.804688 -2.203125 4.140625 -2.203125 C 4.472656 -2.203125 4.753906 -2.085938 4.984375 -1.859375 C 5.210938 -1.628906 5.328125 -1.328125 5.328125 -0.953125 C 5.328125 -0.585938 5.210938 -0.289062 4.984375 -0.0625 C 4.753906 0.164062 4.46875 0.28125 4.125 0.28125 Z M 4.125 0.28125 "/></g></g></g></svg>